;TYPE=PLATED
;Layer: PTH_Through
;EasyEDA Pro v4.1.60, 2026-09-30 14:22:34
;Gerber Generator version 0.3
M48
METRIC,LZ,0000.00000
;Hole size 1 = 0.30500 METRIC
T01C0.30500
;Hole size 2 = 0.90002 METRIC
T02C0.90002
;Hole size 3 = 1.00000 METRIC
T03C1.00000
;Hole size 4 = 1.10002 METRIC
T04C1.10002
;Hole size 5 = 1.70002 METRIC
T05C1.70002
;Hole size 6 = 1.80000 METRIC
T06C1.80000
;Hole size 7 = 3.20040 METRIC
T07C3.20040
%
G05
G90
T01
X40.132Y14.69136
X36.449Y8.001
X37.338Y6.985
X12.065Y3.429
X13.208Y2.54
X16.51Y14.224
X15.367Y15.113
X15.748Y33.274
X38.735Y43.688
X19.05Y21.209
X29.845Y28.067
X31.6746Y22.02349
X30.59997Y19.80497
X18.2095Y12.2405
X18.923Y25.908
X26.035Y25.527
X29.464Y11.176
X25.0463Y18.51755
X25.6827Y17.88115
X26.31909Y17.24475
X25.6827Y16.60836
X25.0463Y17.24475
X24.4099Y17.88115
X23.77351Y17.24475
X24.4099Y16.60836
X25.0463Y15.97196
X21.04712Y15.07812
X20.61707Y12.74307
X30.17925Y22.29133
X34.036Y23.876
X34.036Y24.765
X34.036Y25.654
X34.036Y26.65831
X34.036Y27.559
X30.226Y14.224
X22.26807Y10.96507
X23.57018Y11.303
X19.812Y11.938
X20.447Y14.478
X32.43705Y18.08605
X14.478Y31.496
X14.478Y30.48
X14.478Y29.31778
X14.478Y28.22911
X14.478Y27.08314
X14.478Y32.639
X42.418Y28.702
X42.418Y29.845
X42.545Y31.95032
X42.545Y33.07193
X43.053Y34.163
X43.688Y34.925
X5.842Y30.734
X5.842Y29.74631
X5.842Y28.6118
X5.842Y27.61911
X2.54Y18.034
X3.7631Y18.034
X5.08Y18.034
X3.175Y16.764
X4.53663Y16.764
X5.92898Y16.764
X18.796Y12.827
X21.67025Y13.54225
X5.85709Y31.8489
X5.85709Y32.8416
X34.036Y28.75965
X34.036Y29.66035
X42.164Y39.243
X43.26102Y39.243
X44.45464Y39.243
X44.45232Y38.1
X42.16168Y38.1
X43.2587Y38.1
X44.45232Y36.83
X42.16168Y36.83
X43.2587Y36.83
X11.55816Y42.8625
X9.26752Y42.8625
X10.36455Y42.8625
X9.26752Y44.1325
X10.36455Y44.1325
X11.55816Y44.1325
X9.26984Y45.2755
X10.36687Y45.2755
X11.56048Y45.2755
X25.90916Y3.3655
X23.61852Y3.3655
X24.71555Y3.3655
X23.61852Y4.6355
X24.71555Y4.6355
X25.90916Y4.6355
X23.62084Y5.7785
X24.71787Y5.7785
X25.91148Y5.7785
X38.22352Y47.6885
X38.22584Y48.8315
X39.32055Y47.6885
X39.32287Y48.8315
X40.51416Y47.6885
X40.51648Y48.8315
X38.22584Y46.6725
X39.32287Y46.6725
X40.51648Y46.6725
X1.01484Y39.6875
X2.11187Y39.6875
X3.30548Y39.6875
X1.01252Y38.5445
X1.01252Y37.2745
X2.10955Y38.5445
X2.10955Y37.2745
X3.30316Y37.2745
X3.30316Y38.5445
X1.14184Y34.0995
X2.23887Y34.0995
X3.43248Y34.0995
X1.13952Y32.9565
X1.13952Y31.6865
X2.23655Y32.9565
X2.23655Y31.6865
X3.43016Y31.6865
X3.43016Y32.9565
X1.14184Y30.4165
X2.23887Y30.4165
X3.43248Y30.4165
X1.13952Y29.2735
X1.13952Y28.0035
X2.23655Y29.2735
X2.23655Y28.0035
X3.43016Y28.0035
X3.43016Y29.2735
X27.051Y13.62936
X28.067Y14.605
X28.448Y12.446
X27.178Y11.176
X34.29Y31.369
X29.718Y9.779
X17.653Y20.447
T02
X43.18Y19.28406
X43.18Y16.78407
T03
X9.35883Y2.19888
X20.35881Y2.19888
T04
X40.42486Y1.98498
X29.42488Y1.98498
T05
X17.35882Y7.19879
X12.35883Y7.19889
T06
X32.42488Y11.98499
X37.42487Y11.98499
T07
X4.99964Y44.99962
X44.99957Y4.99962
X5.0Y5.0
X44.99956Y44.99962
M30