G04 Layer: BottomPasteMaskLayer*
G04 EasyEDA Pro v4.1.60, 2026-09-30 14:22:34*
G04 Gerber Generator version 0.3*
G04 Scale: 100 percent, Rotated: No, Reflected: No*
G04 Dimensions in millimeters*
G04 Leading zeros omitted, absolute positions, 4 integers and 5 decimals*
G04 Generated by one-click*
G04 Object Configs: Pad,Via,Track,Text,Image,Dimension,BoardOutline,BoardCutout,CopperFilled,SolidRegion,FPCStiffener,Line,PlaneZone,ComponentProperty,ComponentSilkscreen,TearDrop*
G04 Layer Configs: 1,15,16,2,3,4,5,6,7,8,9,10,11,13,14,56*
G04 Copper Areas: 0*
%FSLAX45Y45*%
%MOMM*%
%AMRect*21,1,$1,$2,0,0,$3*%
%ADD10R,0.8X0.9*%
%ADD11Rect,0.8X0.9X45.0*%
%ADD12Rect,0.8X0.9X135.0*%
%ADD13R,0.9X0.8*%
%ADD14R,0.7X0.9*%
%ADD15R,2.0037X1.8*%
%ADD16R,2.0X1.8*%
%ADD17Rect,0.5X0.54X45.0*%
G75*


G04 PolygonModel Start*
G36*
G01X2728618Y1183119D02*
G01X2785187Y1126551D01*
G01X2785187Y1119478D01*
G01X2769067Y1103359D01*
G01X2742904Y1129522D01*
G01X2719570Y1106187D01*
G01X2745733Y1080024D01*
G01X2728618Y1062910D01*
G01X2721547Y1062912D01*
G01X2664979Y1119480D01*
G01X2664979Y1126549D01*
G01X2721547Y1183118D01*
G01X2728618Y1183119D01*
G37*
G36*
G01X2833982Y950481D02*
G01X2777413Y1007049D01*
G01X2777413Y1014122D01*
G01X2793533Y1030241D01*
G01X2819696Y1004078D01*
G01X2843030Y1027413D01*
G01X2816867Y1053576D01*
G01X2833982Y1070690D01*
G01X2841053Y1070688D01*
G01X2897621Y1014120D01*
G01X2897621Y1007051D01*
G01X2841053Y950482D01*
G01X2833982Y950481D01*
G37*
G36*
G01X2842918Y1297419D02*
G01X2899487Y1240851D01*
G01X2899487Y1233778D01*
G01X2883367Y1217659D01*
G01X2857204Y1243822D01*
G01X2833870Y1220487D01*
G01X2860033Y1194324D01*
G01X2842918Y1177210D01*
G01X2835847Y1177212D01*
G01X2779279Y1233780D01*
G01X2779279Y1240849D01*
G01X2835847Y1297418D01*
G01X2842918Y1297419D01*
G37*
G36*
G01X2948282Y1064781D02*
G01X2891713Y1121349D01*
G01X2891713Y1128422D01*
G01X2907833Y1144541D01*
G01X2933996Y1118378D01*
G01X2957330Y1141713D01*
G01X2931167Y1167876D01*
G01X2948282Y1184990D01*
G01X2955353Y1184988D01*
G01X3011921Y1128420D01*
G01X3011921Y1121351D01*
G01X2955353Y1064782D01*
G01X2948282Y1064781D01*
G37*
G36*
G01X4642399Y1338702D02*
G01X4642399Y1258702D01*
G01X4637397Y1253701D01*
G01X4614601Y1253701D01*
G01X4614601Y1290701D01*
G01X4581601Y1290701D01*
G01X4581601Y1253701D01*
G01X4557398Y1253701D01*
G01X4552399Y1258702D01*
G01X4552399Y1338702D01*
G01X4557398Y1343701D01*
G01X4637397Y1343701D01*
G01X4642399Y1338702D01*
G37*
G36*
G01X4637397Y1183701D02*
G01X4642399Y1178702D01*
G01X4642399Y1099703D01*
G01X4637397Y1094702D01*
G01X4557398Y1094702D01*
G01X4552399Y1099703D01*
G01X4552399Y1178702D01*
G01X4557398Y1183701D01*
G01X4581601Y1183701D01*
G01X4581601Y1145703D01*
G01X4614601Y1145703D01*
G01X4614601Y1183701D01*
G01X4637397Y1183701D01*
G37*
G36*
G01X4171401Y1086998D02*
G01X4171401Y1166998D01*
G01X4176403Y1171999D01*
G01X4199199Y1171999D01*
G01X4199199Y1134999D01*
G01X4232199Y1134999D01*
G01X4232199Y1171999D01*
G01X4256402Y1171999D01*
G01X4261401Y1166998D01*
G01X4261401Y1086998D01*
G01X4256402Y1081999D01*
G01X4176403Y1081999D01*
G01X4171401Y1086998D01*
G37*
G36*
G01X4176403Y1241999D02*
G01X4171401Y1246998D01*
G01X4171401Y1325997D01*
G01X4176403Y1330998D01*
G01X4256402Y1330998D01*
G01X4261401Y1325997D01*
G01X4261401Y1246998D01*
G01X4256402Y1241999D01*
G01X4232199Y1241999D01*
G01X4232199Y1279997D01*
G01X4199199Y1279997D01*
G01X4199199Y1241999D01*
G01X4176403Y1241999D01*
G37*
G36*
G01X2654636Y1727200D02*
G01X2501900Y1574464D01*
G01X2349164Y1727200D01*
G01X2501900Y1879936D01*
G01X2654636Y1727200D01*
G37*
G36*
G01X2714032Y1698919D02*
G01X2728174Y1713061D01*
G01X2781915Y1659320D01*
G01X2767773Y1645178D01*
G01X2714032Y1698919D01*
G37*
G36*
G01X2685740Y1670635D02*
G01X2699882Y1684777D01*
G01X2753624Y1631036D01*
G01X2739482Y1616894D01*
G01X2685740Y1670635D01*
G37*
G36*
G01X2657456Y1642344D02*
G01X2671598Y1656486D01*
G01X2725338Y1602746D01*
G01X2711196Y1588604D01*
G01X2657456Y1642344D01*
G37*
G36*
G01X2629166Y1614054D02*
G01X2643309Y1628196D01*
G01X2697050Y1574455D01*
G01X2682908Y1560313D01*
G01X2629166Y1614054D01*
G37*
G36*
G01X2600898Y1585786D02*
G01X2615040Y1599928D01*
G01X2668782Y1546187D01*
G01X2654640Y1532045D01*
G01X2600898Y1585786D01*
G37*
G36*
G01X2572609Y1557497D02*
G01X2586749Y1571637D01*
G01X2640490Y1517895D01*
G01X2626350Y1503755D01*
G01X2572609Y1557497D01*
G37*
G36*
G01X2544317Y1529212D02*
G01X2558461Y1543356D01*
G01X2612204Y1489613D01*
G01X2598061Y1475469D01*
G01X2544317Y1529212D01*
G37*
G36*
G01X2516033Y1500921D02*
G01X2530175Y1515063D01*
G01X2583915Y1461323D01*
G01X2569773Y1447181D01*
G01X2516033Y1500921D01*
G37*
G36*
G01X2419871Y1993080D02*
G01X2434013Y2007222D01*
G01X2487754Y1953481D01*
G01X2473612Y1939339D01*
G01X2419871Y1993080D01*
G37*
G36*
G01X2391579Y1964796D02*
G01X2405721Y1978938D01*
G01X2459463Y1925197D01*
G01X2445321Y1911055D01*
G01X2391579Y1964796D01*
G37*
G36*
G01X2363295Y1936505D02*
G01X2377437Y1950647D01*
G01X2431177Y1896907D01*
G01X2417035Y1882765D01*
G01X2363295Y1936505D01*
G37*
G36*
G01X2335006Y1908215D02*
G01X2349148Y1922357D01*
G01X2402889Y1868616D01*
G01X2388747Y1854474D01*
G01X2335006Y1908215D01*
G37*
G36*
G01X2306737Y1879947D02*
G01X2320880Y1894089D01*
G01X2374621Y1840348D01*
G01X2360479Y1826206D01*
G01X2306737Y1879947D01*
G37*
G36*
G01X2278448Y1851657D02*
G01X2292588Y1865798D01*
G01X2346330Y1812056D01*
G01X2332189Y1797916D01*
G01X2278448Y1851657D01*
G37*
G36*
G01X2250156Y1823373D02*
G01X2264300Y1837517D01*
G01X2318044Y1783774D01*
G01X2303900Y1769630D01*
G01X2250156Y1823373D01*
G37*
G36*
G01X2221872Y1795082D02*
G01X2236014Y1809224D01*
G01X2289754Y1755484D01*
G01X2275612Y1741342D01*
G01X2221872Y1795082D01*
G37*
G36*
G01X2473607Y1515099D02*
G01X2487747Y1500959D01*
G01X2434002Y1447214D01*
G01X2419862Y1461354D01*
G01X2473607Y1515099D01*
G37*
G36*
G01X2445321Y1543385D02*
G01X2459466Y1529239D01*
G01X2405723Y1475496D01*
G01X2391578Y1489642D01*
G01X2445321Y1543385D01*
G37*
G36*
G01X2417033Y1571673D02*
G01X2431177Y1557529D01*
G01X2377434Y1503786D01*
G01X2363290Y1517929D01*
G01X2417033Y1571673D01*
G37*
G36*
G01X2388747Y1599959D02*
G01X2402884Y1585822D01*
G01X2349139Y1532077D01*
G01X2335002Y1546214D01*
G01X2388747Y1599959D01*
G37*
G36*
G01X2360474Y1628232D02*
G01X2374617Y1614088D01*
G01X2320872Y1560343D01*
G01X2306729Y1574487D01*
G01X2360474Y1628232D01*
G37*
G36*
G01X2332184Y1656522D02*
G01X2346324Y1642381D01*
G01X2292579Y1588636D01*
G01X2278439Y1602777D01*
G01X2332184Y1656522D01*
G37*
G36*
G01X2303898Y1684808D02*
G01X2318044Y1670662D01*
G01X2264300Y1616919D01*
G01X2250155Y1631065D01*
G01X2303898Y1684808D01*
G37*
G36*
G01X2275610Y1713096D02*
G01X2289754Y1698952D01*
G01X2236011Y1645208D01*
G01X2221867Y1659352D01*
G01X2275610Y1713096D01*
G37*
G36*
G01X2767759Y1809229D02*
G01X2781901Y1795087D01*
G01X2728163Y1741349D01*
G01X2714021Y1755491D01*
G01X2767759Y1809229D01*
G37*
G36*
G01X2739474Y1837521D02*
G01X2753617Y1823379D01*
G01X2699875Y1769637D01*
G01X2685733Y1783779D01*
G01X2739474Y1837521D01*
G37*
G36*
G01X2711185Y1865803D02*
G01X2725325Y1851663D01*
G01X2671587Y1797925D01*
G01X2657447Y1812065D01*
G01X2711185Y1865803D01*
G37*
G36*
G01X2682893Y1894094D02*
G01X2697036Y1879952D01*
G01X2643298Y1826215D01*
G01X2629156Y1840357D01*
G01X2682893Y1894094D01*
G37*
G36*
G01X2654625Y1922363D02*
G01X2668768Y1908220D01*
G01X2615030Y1854483D01*
G01X2600888Y1868625D01*
G01X2654625Y1922363D01*
G37*
G36*
G01X2626336Y1950652D02*
G01X2640478Y1936510D01*
G01X2586740Y1882772D01*
G01X2572598Y1896914D01*
G01X2626336Y1950652D01*
G37*
G36*
G01X2598052Y1978944D02*
G01X2612196Y1964800D01*
G01X2558454Y1911058D01*
G01X2544310Y1925202D01*
G01X2598052Y1978944D01*
G37*
G36*
G01X2569762Y2007226D02*
G01X2583902Y1993086D01*
G01X2530164Y1939348D01*
G01X2516024Y1953488D01*
G01X2569762Y2007226D01*
G37*
G36*
G01X1860917Y1231491D02*
G01X1860917Y1225833D01*
G01X1825517Y1190433D01*
G01X1819860Y1190433D01*
G01X1787333Y1222960D01*
G01X1787333Y1228617D01*
G01X1822733Y1264017D01*
G01X1828391Y1264017D01*
G01X1860917Y1231491D01*
G37*
G36*
G01X1880009Y1250583D02*
G01X1847483Y1283109D01*
G01X1847483Y1288767D01*
G01X1882883Y1324167D01*
G01X1888540Y1324167D01*
G01X1921067Y1291640D01*
G01X1921067Y1285983D01*
G01X1885667Y1250583D01*
G01X1880009Y1250583D01*
G37*
G36*
G01X1917291Y1085483D02*
G01X1911633Y1085483D01*
G01X1876233Y1120883D01*
G01X1876233Y1126540D01*
G01X1908760Y1159067D01*
G01X1914417Y1159067D01*
G01X1949817Y1123667D01*
G01X1949817Y1118009D01*
G01X1917291Y1085483D01*
G37*
G36*
G01X1936383Y1066391D02*
G01X1968909Y1098917D01*
G01X1974567Y1098917D01*
G01X2009967Y1063517D01*
G01X2009967Y1057860D01*
G01X1977440Y1025333D01*
G01X1971783Y1025333D01*
G01X1936383Y1060733D01*
G01X1936383Y1066391D01*
G37*
G36*
G01X2386800Y1234300D02*
G01X2382799Y1230300D01*
G01X2332736Y1230300D01*
G01X2328736Y1234300D01*
G01X2328736Y1280300D01*
G01X2332736Y1284300D01*
G01X2382799Y1284300D01*
G01X2386800Y1280300D01*
G01X2386800Y1234300D01*
G37*
G36*
G01X2413800Y1234300D02*
G01X2413800Y1280300D01*
G01X2417801Y1284300D01*
G01X2467864Y1284300D01*
G01X2471865Y1280300D01*
G01X2471865Y1234300D01*
G01X2467864Y1230300D01*
G01X2417801Y1230300D01*
G01X2413800Y1234300D01*
G37*
G36*
G01X2413800Y1153300D02*
G01X2417801Y1157300D01*
G01X2467864Y1157300D01*
G01X2471865Y1153300D01*
G01X2471865Y1107300D01*
G01X2467864Y1103300D01*
G01X2417801Y1103300D01*
G01X2413800Y1107300D01*
G01X2413800Y1153300D01*
G37*
G36*
G01X2386800Y1153300D02*
G01X2386800Y1107300D01*
G01X2382799Y1103300D01*
G01X2332736Y1103300D01*
G01X2328736Y1107300D01*
G01X2328736Y1153300D01*
G01X2332736Y1157300D01*
G01X2382799Y1157300D01*
G01X2386800Y1153300D01*
G37*
G36*
G01X1733183Y1537109D02*
G01X1733183Y1542767D01*
G01X1768583Y1578167D01*
G01X1774240Y1578167D01*
G01X1806767Y1545640D01*
G01X1806767Y1539983D01*
G01X1771367Y1504583D01*
G01X1765709Y1504583D01*
G01X1733183Y1537109D01*
G37*
G36*
G01X1714091Y1518017D02*
G01X1746617Y1485491D01*
G01X1746617Y1479833D01*
G01X1711217Y1444433D01*
G01X1705560Y1444433D01*
G01X1673033Y1476960D01*
G01X1673033Y1482617D01*
G01X1708433Y1518017D01*
G01X1714091Y1518017D01*
G37*
G36*
G01X1631583Y1638709D02*
G01X1631583Y1644367D01*
G01X1666983Y1679767D01*
G01X1672640Y1679767D01*
G01X1705167Y1647240D01*
G01X1705167Y1641583D01*
G01X1669767Y1606183D01*
G01X1664109Y1606183D01*
G01X1631583Y1638709D01*
G37*
G36*
G01X1612491Y1619617D02*
G01X1645017Y1587091D01*
G01X1645017Y1581433D01*
G01X1609617Y1546033D01*
G01X1603960Y1546033D01*
G01X1571433Y1578560D01*
G01X1571433Y1584217D01*
G01X1606833Y1619617D01*
G01X1612491Y1619617D01*
G37*
G36*
G01X3130138Y2197509D02*
G01X3130138Y2203167D01*
G01X3165538Y2238567D01*
G01X3171196Y2238567D01*
G01X3203723Y2206040D01*
G01X3203723Y2200383D01*
G01X3168322Y2164983D01*
G01X3162665Y2164983D01*
G01X3130138Y2197509D01*
G37*
G36*
G01X3111046Y2178417D02*
G01X3143573Y2145891D01*
G01X3143573Y2140233D01*
G01X3108173Y2104833D01*
G01X3102515Y2104833D01*
G01X3069989Y2137360D01*
G01X3069989Y2143017D01*
G01X3105389Y2178417D01*
G01X3111046Y2178417D01*
G37*
G36*
G01X3054717Y2234791D02*
G01X3054717Y2229133D01*
G01X3019317Y2193733D01*
G01X3013660Y2193733D01*
G01X2981133Y2226260D01*
G01X2981133Y2231917D01*
G01X3016533Y2267317D01*
G01X3022191Y2267317D01*
G01X3054717Y2234791D01*
G37*
G36*
G01X3073809Y2253883D02*
G01X3041283Y2286409D01*
G01X3041283Y2292067D01*
G01X3076683Y2327467D01*
G01X3082340Y2327467D01*
G01X3114867Y2294940D01*
G01X3114867Y2289283D01*
G01X3079467Y2253883D01*
G01X3073809Y2253883D01*
G37*
G36*
G01X3219817Y1752191D02*
G01X3219817Y1746533D01*
G01X3184417Y1711133D01*
G01X3178760Y1711133D01*
G01X3146233Y1743660D01*
G01X3146233Y1749317D01*
G01X3181633Y1784717D01*
G01X3187291Y1784717D01*
G01X3219817Y1752191D01*
G37*
G36*
G01X3238909Y1771283D02*
G01X3206383Y1803809D01*
G01X3206383Y1809467D01*
G01X3241783Y1844867D01*
G01X3247440Y1844867D01*
G01X3279967Y1812340D01*
G01X3279967Y1806683D01*
G01X3244567Y1771283D01*
G01X3238909Y1771283D01*
G37*
G36*
G01X2127617Y1129891D02*
G01X2127617Y1124233D01*
G01X2092217Y1088833D01*
G01X2086560Y1088833D01*
G01X2054033Y1121360D01*
G01X2054033Y1127017D01*
G01X2089433Y1162417D01*
G01X2095091Y1162417D01*
G01X2127617Y1129891D01*
G37*
G36*
G01X2146709Y1148983D02*
G01X2114183Y1181509D01*
G01X2114183Y1187167D01*
G01X2149583Y1222567D01*
G01X2155240Y1222567D01*
G01X2187767Y1190040D01*
G01X2187767Y1184383D01*
G01X2152367Y1148983D01*
G01X2146709Y1148983D01*
G37*
G36*
G01X2550300Y2488400D02*
G01X2554300Y2484399D01*
G01X2554300Y2434336D01*
G01X2550300Y2430336D01*
G01X2504300Y2430336D01*
G01X2500300Y2434336D01*
G01X2500300Y2484399D01*
G01X2504300Y2488400D01*
G01X2550300Y2488400D01*
G37*
G36*
G01X2550300Y2515400D02*
G01X2504300Y2515400D01*
G01X2500300Y2519401D01*
G01X2500300Y2569464D01*
G01X2504300Y2573465D01*
G01X2550300Y2573465D01*
G01X2554300Y2569464D01*
G01X2554300Y2519401D01*
G01X2550300Y2515400D01*
G37*
G36*
G01X2096300Y2613800D02*
G01X2100301Y2617800D01*
G01X2150364Y2617800D01*
G01X2154365Y2613800D01*
G01X2154365Y2567800D01*
G01X2150364Y2563800D01*
G01X2100301Y2563800D01*
G01X2096300Y2567800D01*
G01X2096300Y2613800D01*
G37*
G36*
G01X2069300Y2613800D02*
G01X2069300Y2567800D01*
G01X2065299Y2563800D01*
G01X2015236Y2563800D01*
G01X2011236Y2567800D01*
G01X2011236Y2613800D01*
G01X2015236Y2617800D01*
G01X2065299Y2617800D01*
G01X2069300Y2613800D01*
G37*
G36*
G01X1981609Y2305417D02*
G01X1987267Y2305417D01*
G01X2022667Y2270017D01*
G01X2022667Y2264360D01*
G01X1990140Y2231833D01*
G01X1984483Y2231833D01*
G01X1949083Y2267233D01*
G01X1949083Y2272891D01*
G01X1981609Y2305417D01*
G37*
G36*
G01X1962517Y2324509D02*
G01X1929991Y2291983D01*
G01X1924333Y2291983D01*
G01X1888933Y2327383D01*
G01X1888933Y2333040D01*
G01X1921460Y2365567D01*
G01X1927117Y2365567D01*
G01X1962517Y2330167D01*
G01X1962517Y2324509D01*
G37*
G36*
G01X2905900Y2577300D02*
G01X2909900Y2573299D01*
G01X2909900Y2523236D01*
G01X2905900Y2519236D01*
G01X2859900Y2519236D01*
G01X2855900Y2523236D01*
G01X2855900Y2573299D01*
G01X2859900Y2577300D01*
G01X2905900Y2577300D01*
G37*
G36*
G01X2905900Y2604300D02*
G01X2859900Y2604300D01*
G01X2855900Y2608301D01*
G01X2855900Y2658364D01*
G01X2859900Y2662365D01*
G01X2905900Y2662365D01*
G01X2909900Y2658364D01*
G01X2909900Y2608301D01*
G01X2905900Y2604300D01*
G37*
G36*
G01X2203817Y1358491D02*
G01X2203817Y1352833D01*
G01X2168417Y1317433D01*
G01X2162760Y1317433D01*
G01X2130233Y1349960D01*
G01X2130233Y1355617D01*
G01X2165633Y1391017D01*
G01X2171291Y1391017D01*
G01X2203817Y1358491D01*
G37*
G36*
G01X2222909Y1377583D02*
G01X2190383Y1410109D01*
G01X2190383Y1415767D01*
G01X2225783Y1451167D01*
G01X2231440Y1451167D01*
G01X2263967Y1418640D01*
G01X2263967Y1412983D01*
G01X2228567Y1377583D01*
G01X2222909Y1377583D01*
G37*

G04 Pad Start*
G54D10*
G01X2597302Y965200D03*
G01X2457298Y965200D03*
G01X2368398Y2209800D03*
G01X2508402Y2209800D03*
G54D11*
G01X2932399Y2068799D03*
G01X2833401Y1969801D03*
G54D12*
G01X3021299Y1423701D03*
G01X2922301Y1522699D03*
G01X1878299Y1652301D03*
G01X1779301Y1751299D03*
G54D13*
G01X4051300Y1136498D03*
G01X4051300Y1276502D03*
G54D14*
G01X4406900Y1311097D03*
G01X4406900Y1051103D03*
G54D16*
G01X3692500Y749300D03*
G01X3292500Y749300D03*
G01X1273200Y304800D03*
G01X1673200Y304800D03*
G54D17*
G01X2040393Y1443493D03*
G01X2099807Y1502907D03*
G01X2002293Y1214893D03*
G01X2061707Y1274307D03*
G01X2226807Y1096507D03*
G01X2167393Y1037093D03*
G54D12*
G01X2706401Y2310099D03*
G01X2805399Y2211101D03*
G54D11*
G01X2170399Y2183099D03*
G01X2071401Y2084101D03*
G04 Pad End*

M02*

