G04 Layer: TopSilkscreenLayer*
G04 EasyEDA Pro v4.1.60, 2026-09-30 14:22:34*
G04 Gerber Generator version 0.3*
G04 Scale: 100 percent, Rotated: No, Reflected: No*
G04 Dimensions in millimeters*
G04 Leading zeros omitted, absolute positions, 4 integers and 5 decimals*
G04 Generated by one-click*
G04 Object Configs: Pad,Via,Track,Text,Image,Dimension,BoardOutline,BoardCutout,CopperFilled,SolidRegion,FPCStiffener,Line,PlaneZone,ComponentProperty,ComponentSilkscreen,TearDrop*
G04 Layer Configs: 1,15,16,2,3,4,5,6,7,8,9,10,11,13,14,56*
G04 Copper Areas: 0*
%FSLAX45Y45*%
%MOMM*%
%ADD10C,0.1524*%
%ADD11C,0.254*%
%ADD12C,0.15199*%
%ADD13C,0.14986*%
%ADD14C,0.25*%
%ADD15C,0.5*%
%ADD16C,0.4062*%
%ADD17C,0.4*%
G75*


G04 Text Start*
G54D10*
G01X4842002Y2263140D02*
G01X4838954Y2269490D01*
G01X4832604Y2275586D01*
G01X4826508Y2278634D01*
G01X4814062Y2278634D01*
G01X4807966Y2275586D01*
G01X4801616Y2269490D01*
G01X4798568Y2263140D01*
G01X4795520Y2253996D01*
G01X4795520Y2238502D01*
G01X4798568Y2229104D01*
G01X4801616Y2223008D01*
G01X4807966Y2216658D01*
G01X4814062Y2213610D01*
G01X4826508Y2213610D01*
G01X4832604Y2216658D01*
G01X4838954Y2223008D01*
G01X4842002Y2229104D01*
G01X4902962Y2278634D02*
G01X4872228Y2235454D01*
G01X4918456Y2235454D01*
G01X4902962Y2278634D02*
G01X4902962Y2213610D01*
G01X3749802Y3190240D02*
G01X3746754Y3196590D01*
G01X3740404Y3202686D01*
G01X3734308Y3205734D01*
G01X3721862Y3205734D01*
G01X3715766Y3202686D01*
G01X3709416Y3196590D01*
G01X3706368Y3190240D01*
G01X3703320Y3181096D01*
G01X3703320Y3165602D01*
G01X3706368Y3156204D01*
G01X3709416Y3150108D01*
G01X3715766Y3143758D01*
G01X3721862Y3140710D01*
G01X3734308Y3140710D01*
G01X3740404Y3143758D01*
G01X3746754Y3150108D01*
G01X3749802Y3156204D01*
G01X3820160Y3184144D02*
G01X3817112Y3174746D01*
G01X3810762Y3168650D01*
G01X3801618Y3165602D01*
G01X3798570Y3165602D01*
G01X3789172Y3168650D01*
G01X3783076Y3174746D01*
G01X3780028Y3184144D01*
G01X3780028Y3187192D01*
G01X3783076Y3196590D01*
G01X3789172Y3202686D01*
G01X3798570Y3205734D01*
G01X3801618Y3205734D01*
G01X3810762Y3202686D01*
G01X3817112Y3196590D01*
G01X3820160Y3184144D01*
G01X3820160Y3168650D01*
G01X3817112Y3153156D01*
G01X3810762Y3143758D01*
G01X3801618Y3140710D01*
G01X3795268Y3140710D01*
G01X3786124Y3143758D01*
G01X3783076Y3150108D01*
G01X4321302Y3215640D02*
G01X4318254Y3221990D01*
G01X4311904Y3228086D01*
G01X4305808Y3231134D01*
G01X4293362Y3231134D01*
G01X4287266Y3228086D01*
G01X4280916Y3221990D01*
G01X4277868Y3215640D01*
G01X4274820Y3206496D01*
G01X4274820Y3191002D01*
G01X4277868Y3181604D01*
G01X4280916Y3175508D01*
G01X4287266Y3169158D01*
G01X4293362Y3166110D01*
G01X4305808Y3166110D01*
G01X4311904Y3169158D01*
G01X4318254Y3175508D01*
G01X4321302Y3181604D01*
G01X4351528Y3218688D02*
G01X4357624Y3221990D01*
G01X4366768Y3231134D01*
G01X4366768Y3166110D01*
G01X4415536Y3231134D02*
G01X4406138Y3228086D01*
G01X4400042Y3218688D01*
G01X4396994Y3203448D01*
G01X4396994Y3194050D01*
G01X4400042Y3178556D01*
G01X4406138Y3169158D01*
G01X4415536Y3166110D01*
G01X4421632Y3166110D01*
G01X4431030Y3169158D01*
G01X4437126Y3178556D01*
G01X4440174Y3194050D01*
G01X4440174Y3203448D01*
G01X4437126Y3218688D01*
G01X4431030Y3228086D01*
G01X4421632Y3231134D01*
G01X4415536Y3231134D01*
G01X1501902Y2110740D02*
G01X1498854Y2117090D01*
G01X1492504Y2123186D01*
G01X1486408Y2126234D01*
G01X1473962Y2126234D01*
G01X1467866Y2123186D01*
G01X1461516Y2117090D01*
G01X1458468Y2110740D01*
G01X1455420Y2101596D01*
G01X1455420Y2086102D01*
G01X1458468Y2076704D01*
G01X1461516Y2070608D01*
G01X1467866Y2064258D01*
G01X1473962Y2061210D01*
G01X1486408Y2061210D01*
G01X1492504Y2064258D01*
G01X1498854Y2070608D01*
G01X1501902Y2076704D01*
G01X1532128Y2113788D02*
G01X1538224Y2117090D01*
G01X1547368Y2126234D01*
G01X1547368Y2061210D01*
G01X1620774Y2126234D02*
G01X1589786Y2061210D01*
G01X1577594Y2126234D02*
G01X1620774Y2126234D01*
G01X1489202Y2288540D02*
G01X1486154Y2294890D01*
G01X1479804Y2300986D01*
G01X1473708Y2304034D01*
G01X1461262Y2304034D01*
G01X1455166Y2300986D01*
G01X1448816Y2294890D01*
G01X1445768Y2288540D01*
G01X1442720Y2279396D01*
G01X1442720Y2263902D01*
G01X1445768Y2254504D01*
G01X1448816Y2248408D01*
G01X1455166Y2242058D01*
G01X1461262Y2239010D01*
G01X1473708Y2239010D01*
G01X1479804Y2242058D01*
G01X1486154Y2248408D01*
G01X1489202Y2254504D01*
G01X1519428Y2291588D02*
G01X1525524Y2294890D01*
G01X1534668Y2304034D01*
G01X1534668Y2239010D01*
G01X1580134Y2304034D02*
G01X1570990Y2300986D01*
G01X1567942Y2294890D01*
G01X1567942Y2288540D01*
G01X1570990Y2282444D01*
G01X1577086Y2279396D01*
G01X1589532Y2276348D01*
G01X1598930Y2273046D01*
G01X1605026Y2266950D01*
G01X1608074Y2260854D01*
G01X1608074Y2251456D01*
G01X1605026Y2245360D01*
G01X1601978Y2242058D01*
G01X1592580Y2239010D01*
G01X1580134Y2239010D01*
G01X1570990Y2242058D01*
G01X1567942Y2245360D01*
G01X1564894Y2251456D01*
G01X1564894Y2260854D01*
G01X1567942Y2266950D01*
G01X1574038Y2273046D01*
G01X1583436Y2276348D01*
G01X1595628Y2279396D01*
G01X1601978Y2282444D01*
G01X1605026Y2288540D01*
G01X1605026Y2294890D01*
G01X1601978Y2300986D01*
G01X1592580Y2304034D01*
G01X1580134Y2304034D01*
G01X1501902Y2466340D02*
G01X1498854Y2472690D01*
G01X1492504Y2478786D01*
G01X1486408Y2481834D01*
G01X1473962Y2481834D01*
G01X1467866Y2478786D01*
G01X1461516Y2472690D01*
G01X1458468Y2466340D01*
G01X1455420Y2457196D01*
G01X1455420Y2441702D01*
G01X1458468Y2432304D01*
G01X1461516Y2426208D01*
G01X1467866Y2419858D01*
G01X1473962Y2416810D01*
G01X1486408Y2416810D01*
G01X1492504Y2419858D01*
G01X1498854Y2426208D01*
G01X1501902Y2432304D01*
G01X1532128Y2469388D02*
G01X1538224Y2472690D01*
G01X1547368Y2481834D01*
G01X1547368Y2416810D01*
G01X1617726Y2460244D02*
G01X1614678Y2450846D01*
G01X1608328Y2444750D01*
G01X1599184Y2441702D01*
G01X1596136Y2441702D01*
G01X1586738Y2444750D01*
G01X1580642Y2450846D01*
G01X1577594Y2460244D01*
G01X1577594Y2463292D01*
G01X1580642Y2472690D01*
G01X1586738Y2478786D01*
G01X1596136Y2481834D01*
G01X1599184Y2481834D01*
G01X1608328Y2478786D01*
G01X1614678Y2472690D01*
G01X1617726Y2460244D01*
G01X1617726Y2444750D01*
G01X1614678Y2429256D01*
G01X1608328Y2419858D01*
G01X1599184Y2416810D01*
G01X1592834Y2416810D01*
G01X1583690Y2419858D01*
G01X1580642Y2426208D01*
G01X638302Y1805940D02*
G01X635254Y1812290D01*
G01X628904Y1818386D01*
G01X622808Y1821434D01*
G01X610362Y1821434D01*
G01X604266Y1818386D01*
G01X597916Y1812290D01*
G01X594868Y1805940D01*
G01X591820Y1796796D01*
G01X591820Y1781302D01*
G01X594868Y1771904D01*
G01X597916Y1765808D01*
G01X604266Y1759458D01*
G01X610362Y1756410D01*
G01X622808Y1756410D01*
G01X628904Y1759458D01*
G01X635254Y1765808D01*
G01X638302Y1771904D01*
G01X671576Y1805940D02*
G01X671576Y1808988D01*
G01X674624Y1815338D01*
G01X677672Y1818386D01*
G01X683768Y1821434D01*
G01X696214Y1821434D01*
G01X702564Y1818386D01*
G01X705612Y1815338D01*
G01X708660Y1808988D01*
G01X708660Y1802892D01*
G01X705612Y1796796D01*
G01X699262Y1787398D01*
G01X668528Y1756410D01*
G01X711708Y1756410D01*
G01X772668Y1821434D02*
G01X741934Y1778254D01*
G01X788162Y1778254D01*
G01X772668Y1821434D02*
G01X772668Y1756410D01*
G01X3052722Y1557067D02*
G01X3059367Y1554732D01*
G01X3068168Y1554911D01*
G01X3074634Y1557067D01*
G01X3083434Y1565867D01*
G01X3085589Y1572333D01*
G01X3085769Y1581134D01*
G01X3083434Y1587779D01*
G01X3079124Y1596400D01*
G01X3068168Y1607356D01*
G01X3059367Y1611846D01*
G01X3052901Y1614001D01*
G01X3043921Y1614001D01*
G01X3037455Y1611846D01*
G01X3028655Y1603045D01*
G01X3026499Y1596580D01*
G01X3026499Y1587599D01*
G01X3028655Y1581134D01*
G01X3029193Y1533538D02*
G01X3031349Y1531383D01*
G01X3033684Y1524738D01*
G01X3033684Y1520427D01*
G01X3031528Y1513961D01*
G01X3022728Y1505161D01*
G01X3016082Y1502826D01*
G01X3011772Y1502826D01*
G01X3005126Y1505161D01*
G01X3000816Y1509471D01*
G01X2998661Y1515937D01*
G01X2996505Y1527072D01*
G01X2996326Y1570717D01*
G01X2965793Y1540184D01*
G01X2979622Y1462055D02*
G01X2983933Y1470676D01*
G01X2981778Y1477142D01*
G01X2977288Y1481632D01*
G01X2970822Y1483788D01*
G01X2964356Y1481632D01*
G01X2953400Y1474987D01*
G01X2944420Y1470676D01*
G01X2935799Y1470676D01*
G01X2929333Y1472832D01*
G01X2922688Y1479477D01*
G01X2920532Y1485943D01*
G01X2920353Y1490433D01*
G01X2924843Y1499234D01*
G01X2933644Y1508034D01*
G01X2942265Y1512345D01*
G01X2946755Y1512165D01*
G01X2953220Y1510010D01*
G01X2959866Y1503365D01*
G01X2962021Y1496899D01*
G01X2962021Y1488278D01*
G01X2957711Y1479298D01*
G01X2951245Y1468521D01*
G01X2948910Y1461876D01*
G01X2951065Y1455410D01*
G01X2955555Y1450920D01*
G01X2962021Y1448765D01*
G01X2970822Y1453255D01*
G01X2979622Y1462055D01*
G01X3457702Y1120140D02*
G01X3454654Y1126490D01*
G01X3448304Y1132586D01*
G01X3442208Y1135634D01*
G01X3429762Y1135634D01*
G01X3423666Y1132586D01*
G01X3417316Y1126490D01*
G01X3414268Y1120140D01*
G01X3411220Y1110996D01*
G01X3411220Y1095502D01*
G01X3414268Y1086104D01*
G01X3417316Y1080008D01*
G01X3423666Y1073658D01*
G01X3429762Y1070610D01*
G01X3442208Y1070610D01*
G01X3448304Y1073658D01*
G01X3454654Y1080008D01*
G01X3457702Y1086104D01*
G01X3487928Y1135634D02*
G01X3487928Y1070610D01*
G01X3487928Y1135634D02*
G01X3531108Y1070610D01*
G01X3531108Y1135634D02*
G01X3531108Y1070610D01*
G01X3561334Y1123188D02*
G01X3567430Y1126490D01*
G01X3576574Y1135634D01*
G01X3576574Y1070610D01*
G01X3605428Y2235822D02*
G01X3540404Y2235822D01*
G01X3605428Y2235822D02*
G01X3605428Y2214232D01*
G01X3602380Y2204834D01*
G01X3596284Y2198738D01*
G01X3589934Y2195690D01*
G01X3580790Y2192388D01*
G01X3565296Y2192388D01*
G01X3555898Y2195690D01*
G01X3549802Y2198738D01*
G01X3543452Y2204834D01*
G01X3540404Y2214232D01*
G01X3540404Y2235822D01*
G01X3592982Y2162162D02*
G01X3596284Y2156066D01*
G01X3605428Y2146922D01*
G01X3540404Y2146922D01*
G01X3589934Y2113648D02*
G01X3592982Y2113648D01*
G01X3599332Y2110600D01*
G01X3602380Y2107552D01*
G01X3605428Y2101456D01*
G01X3605428Y2089010D01*
G01X3602380Y2082660D01*
G01X3599332Y2079612D01*
G01X3592982Y2076564D01*
G01X3586886Y2076564D01*
G01X3580790Y2079612D01*
G01X3571392Y2085962D01*
G01X3540404Y2116696D01*
G01X3540404Y2073516D01*
G01X4617720Y1135634D02*
G01X4617720Y1070610D01*
G01X4617720Y1070610D02*
G01X4654804Y1070610D01*
G01X4685030Y1135634D02*
G01X4685030Y1070610D01*
G01X4685030Y1135634D02*
G01X4725162Y1135634D01*
G01X4685030Y1104646D02*
G01X4709668Y1104646D01*
G01X4685030Y1070610D02*
G01X4725162Y1070610D01*
G01X4755388Y1135634D02*
G01X4755388Y1070610D01*
G01X4755388Y1135634D02*
G01X4776978Y1135634D01*
G01X4786122Y1132586D01*
G01X4792472Y1126490D01*
G01X4795520Y1120140D01*
G01X4798568Y1110996D01*
G01X4798568Y1095502D01*
G01X4795520Y1086104D01*
G01X4792472Y1080008D01*
G01X4786122Y1073658D01*
G01X4776978Y1070610D01*
G01X4755388Y1070610D01*
G01X4828794Y1123188D02*
G01X4834890Y1126490D01*
G01X4844034Y1135634D01*
G01X4844034Y1070610D01*
G01X363220Y1592834D02*
G01X363220Y1527810D01*
G01X363220Y1527810D02*
G01X400304Y1527810D01*
G01X430530Y1592834D02*
G01X430530Y1527810D01*
G01X430530Y1592834D02*
G01X470662Y1592834D01*
G01X430530Y1561846D02*
G01X455168Y1561846D01*
G01X430530Y1527810D02*
G01X470662Y1527810D01*
G01X500888Y1592834D02*
G01X500888Y1527810D01*
G01X500888Y1592834D02*
G01X522478Y1592834D01*
G01X531622Y1589786D01*
G01X537972Y1583690D01*
G01X541020Y1577340D01*
G01X544068Y1568196D01*
G01X544068Y1552702D01*
G01X541020Y1543304D01*
G01X537972Y1537208D01*
G01X531622Y1530858D01*
G01X522478Y1527810D01*
G01X500888Y1527810D01*
G01X577342Y1577340D02*
G01X577342Y1580388D01*
G01X580390Y1586738D01*
G01X583438Y1589786D01*
G01X589534Y1592834D01*
G01X601980Y1592834D01*
G01X608330Y1589786D01*
G01X611378Y1586738D01*
G01X614426Y1580388D01*
G01X614426Y1574292D01*
G01X611378Y1568196D01*
G01X605028Y1558798D01*
G01X574294Y1527810D01*
G01X617474Y1527810D01*
G01X4318762Y1770634D02*
G01X4312666Y1767586D01*
G01X4306316Y1761490D01*
G01X4303268Y1755140D01*
G01X4300220Y1745996D01*
G01X4300220Y1730502D01*
G01X4303268Y1721104D01*
G01X4306316Y1715008D01*
G01X4312666Y1708658D01*
G01X4318762Y1705610D01*
G01X4331208Y1705610D01*
G01X4337304Y1708658D01*
G01X4343654Y1715008D01*
G01X4346702Y1721104D01*
G01X4349750Y1730502D01*
G01X4349750Y1745996D01*
G01X4346702Y1755140D01*
G01X4343654Y1761490D01*
G01X4337304Y1767586D01*
G01X4331208Y1770634D01*
G01X4318762Y1770634D01*
G01X4328160Y1718056D02*
G01X4346702Y1699514D01*
G01X4417060Y1761490D02*
G01X4414012Y1767586D01*
G01X4404614Y1770634D01*
G01X4398518Y1770634D01*
G01X4389120Y1767586D01*
G01X4383024Y1758188D01*
G01X4379976Y1742948D01*
G01X4379976Y1727454D01*
G01X4383024Y1715008D01*
G01X4389120Y1708658D01*
G01X4398518Y1705610D01*
G01X4401566Y1705610D01*
G01X4410710Y1708658D01*
G01X4417060Y1715008D01*
G01X4420108Y1724152D01*
G01X4420108Y1727454D01*
G01X4417060Y1736598D01*
G01X4410710Y1742948D01*
G01X4401566Y1745996D01*
G01X4398518Y1745996D01*
G01X4389120Y1742948D01*
G01X4383024Y1736598D01*
G01X4379976Y1727454D01*
G01X1772920Y2037334D02*
G01X1772920Y1972310D01*
G01X1772920Y2037334D02*
G01X1800860Y2037334D01*
G01X1810004Y2034286D01*
G01X1813052Y2031238D01*
G01X1816354Y2024888D01*
G01X1816354Y2018792D01*
G01X1813052Y2012696D01*
G01X1810004Y2009648D01*
G01X1800860Y2006346D01*
G01X1772920Y2006346D01*
G01X1794510Y2006346D02*
G01X1816354Y1972310D01*
G01X1849628Y2021840D02*
G01X1849628Y2024888D01*
G01X1852676Y2031238D01*
G01X1855724Y2034286D01*
G01X1861820Y2037334D01*
G01X1874266Y2037334D01*
G01X1880616Y2034286D01*
G01X1883664Y2031238D01*
G01X1886712Y2024888D01*
G01X1886712Y2018792D01*
G01X1883664Y2012696D01*
G01X1877314Y2003298D01*
G01X1846580Y1972310D01*
G01X1889760Y1972310D01*
G01X1926082Y2037334D02*
G01X1960118Y2037334D01*
G01X1941576Y2012696D01*
G01X1950720Y2012696D01*
G01X1957070Y2009648D01*
G01X1960118Y2006346D01*
G01X1963166Y1997202D01*
G01X1963166Y1990852D01*
G01X1960118Y1981708D01*
G01X1954022Y1975358D01*
G01X1944624Y1972310D01*
G01X1935226Y1972310D01*
G01X1926082Y1975358D01*
G01X1923034Y1978660D01*
G01X1919986Y1984756D01*
G01X4300220Y1135634D02*
G01X4300220Y1070610D01*
G01X4300220Y1135634D02*
G01X4328160Y1135634D01*
G01X4337304Y1132586D01*
G01X4340352Y1129538D01*
G01X4343654Y1123188D01*
G01X4343654Y1117092D01*
G01X4340352Y1110996D01*
G01X4337304Y1107948D01*
G01X4328160Y1104646D01*
G01X4300220Y1104646D01*
G01X4321810Y1104646D02*
G01X4343654Y1070610D01*
G01X4376928Y1120140D02*
G01X4376928Y1123188D01*
G01X4379976Y1129538D01*
G01X4383024Y1132586D01*
G01X4389120Y1135634D01*
G01X4401566Y1135634D01*
G01X4407916Y1132586D01*
G01X4410964Y1129538D01*
G01X4414012Y1123188D01*
G01X4414012Y1117092D01*
G01X4410964Y1110996D01*
G01X4404614Y1101598D01*
G01X4373880Y1070610D01*
G01X4417060Y1070610D01*
G01X4478020Y1135634D02*
G01X4447286Y1092454D01*
G01X4493514Y1092454D01*
G01X4478020Y1135634D02*
G01X4478020Y1070610D01*
G01X718820Y1592834D02*
G01X718820Y1527810D01*
G01X718820Y1592834D02*
G01X746760Y1592834D01*
G01X755904Y1589786D01*
G01X758952Y1586738D01*
G01X762254Y1580388D01*
G01X762254Y1574292D01*
G01X758952Y1568196D01*
G01X755904Y1565148D01*
G01X746760Y1561846D01*
G01X718820Y1561846D01*
G01X740410Y1561846D02*
G01X762254Y1527810D01*
G01X795528Y1577340D02*
G01X795528Y1580388D01*
G01X798576Y1586738D01*
G01X801624Y1589786D01*
G01X807720Y1592834D01*
G01X820166Y1592834D01*
G01X826516Y1589786D01*
G01X829564Y1586738D01*
G01X832612Y1580388D01*
G01X832612Y1574292D01*
G01X829564Y1568196D01*
G01X823214Y1558798D01*
G01X792480Y1527810D01*
G01X835660Y1527810D01*
G01X902970Y1592834D02*
G01X871982Y1592834D01*
G01X868934Y1565148D01*
G01X871982Y1568196D01*
G01X881126Y1571244D01*
G01X890524Y1571244D01*
G01X899922Y1568196D01*
G01X906018Y1561846D01*
G01X909066Y1552702D01*
G01X909066Y1546352D01*
G01X906018Y1537208D01*
G01X899922Y1530858D01*
G01X890524Y1527810D01*
G01X881126Y1527810D01*
G01X871982Y1530858D01*
G01X868934Y1534160D01*
G01X865886Y1540256D01*
G01X271618Y4877152D02*
G01X265268Y4883248D01*
G01X256124Y4886296D01*
G01X243678Y4886296D01*
G01X234280Y4883248D01*
G01X228184Y4877152D01*
G01X228184Y4870802D01*
G01X231232Y4864706D01*
G01X234280Y4861658D01*
G01X240630Y4858610D01*
G01X259172Y4852260D01*
G01X265268Y4849212D01*
G01X268316Y4846164D01*
G01X271618Y4839814D01*
G01X271618Y4830670D01*
G01X265268Y4824320D01*
G01X256124Y4821272D01*
G01X243678Y4821272D01*
G01X234280Y4824320D01*
G01X228184Y4830670D01*
G01X348072Y4870802D02*
G01X345024Y4877152D01*
G01X338928Y4883248D01*
G01X332578Y4886296D01*
G01X320386Y4886296D01*
G01X314036Y4883248D01*
G01X307940Y4877152D01*
G01X304892Y4870802D01*
G01X301844Y4861658D01*
G01X301844Y4846164D01*
G01X304892Y4836766D01*
G01X307940Y4830670D01*
G01X314036Y4824320D01*
G01X320386Y4821272D01*
G01X332578Y4821272D01*
G01X338928Y4824320D01*
G01X345024Y4830670D01*
G01X348072Y4836766D01*
G01X378298Y4886296D02*
G01X378298Y4821272D01*
G01X378298Y4886296D02*
G01X405984Y4886296D01*
G01X415382Y4883248D01*
G01X418430Y4880200D01*
G01X421478Y4873850D01*
G01X421478Y4867754D01*
G01X418430Y4861658D01*
G01X415382Y4858610D01*
G01X405984Y4855308D01*
G01X378298Y4855308D01*
G01X399888Y4855308D02*
G01X421478Y4821272D01*
G01X451704Y4886296D02*
G01X451704Y4821272D01*
G01X451704Y4886296D02*
G01X491836Y4886296D01*
G01X451704Y4855308D02*
G01X476342Y4855308D01*
G01X451704Y4821272D02*
G01X491836Y4821272D01*
G01X522062Y4886296D02*
G01X537302Y4821272D01*
G01X552796Y4886296D02*
G01X537302Y4821272D01*
G01X552796Y4886296D02*
G01X568290Y4821272D01*
G01X583784Y4886296D02*
G01X568290Y4821272D01*
G01X614010Y4873850D02*
G01X620106Y4877152D01*
G01X629250Y4886296D01*
G01X629250Y4821272D01*
G01X4318254Y161290D02*
G01X4311904Y167386D01*
G01X4302760Y170434D01*
G01X4290314Y170434D01*
G01X4280916Y167386D01*
G01X4274820Y161290D01*
G01X4274820Y154940D01*
G01X4277868Y148844D01*
G01X4280916Y145796D01*
G01X4287266Y142748D01*
G01X4305808Y136398D01*
G01X4311904Y133350D01*
G01X4314952Y130302D01*
G01X4318254Y123952D01*
G01X4318254Y114808D01*
G01X4311904Y108458D01*
G01X4302760Y105410D01*
G01X4290314Y105410D01*
G01X4280916Y108458D01*
G01X4274820Y114808D01*
G01X4394708Y154940D02*
G01X4391660Y161290D01*
G01X4385564Y167386D01*
G01X4379214Y170434D01*
G01X4367022Y170434D01*
G01X4360672Y167386D01*
G01X4354576Y161290D01*
G01X4351528Y154940D01*
G01X4348480Y145796D01*
G01X4348480Y130302D01*
G01X4351528Y120904D01*
G01X4354576Y114808D01*
G01X4360672Y108458D01*
G01X4367022Y105410D01*
G01X4379214Y105410D01*
G01X4385564Y108458D01*
G01X4391660Y114808D01*
G01X4394708Y120904D01*
G01X4424934Y170434D02*
G01X4424934Y105410D01*
G01X4424934Y170434D02*
G01X4452620Y170434D01*
G01X4462018Y167386D01*
G01X4465066Y164338D01*
G01X4468114Y157988D01*
G01X4468114Y151892D01*
G01X4465066Y145796D01*
G01X4462018Y142748D01*
G01X4452620Y139446D01*
G01X4424934Y139446D01*
G01X4446524Y139446D02*
G01X4468114Y105410D01*
G01X4498340Y170434D02*
G01X4498340Y105410D01*
G01X4498340Y170434D02*
G01X4538472Y170434D01*
G01X4498340Y139446D02*
G01X4522978Y139446D01*
G01X4498340Y105410D02*
G01X4538472Y105410D01*
G01X4568698Y170434D02*
G01X4583938Y105410D01*
G01X4599432Y170434D02*
G01X4583938Y105410D01*
G01X4599432Y170434D02*
G01X4614926Y105410D01*
G01X4630420Y170434D02*
G01X4614926Y105410D01*
G01X4663694Y154940D02*
G01X4663694Y157988D01*
G01X4666742Y164338D01*
G01X4669790Y167386D01*
G01X4675886Y170434D01*
G01X4688332Y170434D01*
G01X4694682Y167386D01*
G01X4697730Y164338D01*
G01X4700778Y157988D01*
G01X4700778Y151892D01*
G01X4697730Y145796D01*
G01X4691380Y136398D01*
G01X4660646Y105410D01*
G01X4703826Y105410D01*
G01X317754Y186690D02*
G01X311404Y192786D01*
G01X302260Y195834D01*
G01X289814Y195834D01*
G01X280416Y192786D01*
G01X274320Y186690D01*
G01X274320Y180340D01*
G01X277368Y174244D01*
G01X280416Y171196D01*
G01X286766Y168148D01*
G01X305308Y161798D01*
G01X311404Y158750D01*
G01X314452Y155702D01*
G01X317754Y149352D01*
G01X317754Y140208D01*
G01X311404Y133858D01*
G01X302260Y130810D01*
G01X289814Y130810D01*
G01X280416Y133858D01*
G01X274320Y140208D01*
G01X394208Y180340D02*
G01X391160Y186690D01*
G01X385064Y192786D01*
G01X378714Y195834D01*
G01X366522Y195834D01*
G01X360172Y192786D01*
G01X354076Y186690D01*
G01X351028Y180340D01*
G01X347980Y171196D01*
G01X347980Y155702D01*
G01X351028Y146304D01*
G01X354076Y140208D01*
G01X360172Y133858D01*
G01X366522Y130810D01*
G01X378714Y130810D01*
G01X385064Y133858D01*
G01X391160Y140208D01*
G01X394208Y146304D01*
G01X424434Y195834D02*
G01X424434Y130810D01*
G01X424434Y195834D02*
G01X452120Y195834D01*
G01X461518Y192786D01*
G01X464566Y189738D01*
G01X467614Y183388D01*
G01X467614Y177292D01*
G01X464566Y171196D01*
G01X461518Y168148D01*
G01X452120Y164846D01*
G01X424434Y164846D01*
G01X446024Y164846D02*
G01X467614Y130810D01*
G01X497840Y195834D02*
G01X497840Y130810D01*
G01X497840Y195834D02*
G01X537972Y195834D01*
G01X497840Y164846D02*
G01X522478Y164846D01*
G01X497840Y130810D02*
G01X537972Y130810D01*
G01X568198Y195834D02*
G01X583438Y130810D01*
G01X598932Y195834D02*
G01X583438Y130810D01*
G01X598932Y195834D02*
G01X614426Y130810D01*
G01X629920Y195834D02*
G01X614426Y130810D01*
G01X666242Y195834D02*
G01X700278Y195834D01*
G01X681736Y171196D01*
G01X690880Y171196D01*
G01X697230Y168148D01*
G01X700278Y164846D01*
G01X703326Y155702D01*
G01X703326Y149352D01*
G01X700278Y140208D01*
G01X694182Y133858D01*
G01X684784Y130810D01*
G01X675386Y130810D01*
G01X666242Y133858D01*
G01X663194Y137160D01*
G01X660146Y143256D01*
G01X4280154Y4872990D02*
G01X4273804Y4879086D01*
G01X4264660Y4882134D01*
G01X4252214Y4882134D01*
G01X4242816Y4879086D01*
G01X4236720Y4872990D01*
G01X4236720Y4866640D01*
G01X4239768Y4860544D01*
G01X4242816Y4857496D01*
G01X4249166Y4854448D01*
G01X4267708Y4848098D01*
G01X4273804Y4845050D01*
G01X4276852Y4842002D01*
G01X4280154Y4835652D01*
G01X4280154Y4826508D01*
G01X4273804Y4820158D01*
G01X4264660Y4817110D01*
G01X4252214Y4817110D01*
G01X4242816Y4820158D01*
G01X4236720Y4826508D01*
G01X4356608Y4866640D02*
G01X4353560Y4872990D01*
G01X4347464Y4879086D01*
G01X4341114Y4882134D01*
G01X4328922Y4882134D01*
G01X4322572Y4879086D01*
G01X4316476Y4872990D01*
G01X4313428Y4866640D01*
G01X4310380Y4857496D01*
G01X4310380Y4842002D01*
G01X4313428Y4832604D01*
G01X4316476Y4826508D01*
G01X4322572Y4820158D01*
G01X4328922Y4817110D01*
G01X4341114Y4817110D01*
G01X4347464Y4820158D01*
G01X4353560Y4826508D01*
G01X4356608Y4832604D01*
G01X4386834Y4882134D02*
G01X4386834Y4817110D01*
G01X4386834Y4882134D02*
G01X4414520Y4882134D01*
G01X4423918Y4879086D01*
G01X4426966Y4876038D01*
G01X4430014Y4869688D01*
G01X4430014Y4863592D01*
G01X4426966Y4857496D01*
G01X4423918Y4854448D01*
G01X4414520Y4851146D01*
G01X4386834Y4851146D01*
G01X4408424Y4851146D02*
G01X4430014Y4817110D01*
G01X4460240Y4882134D02*
G01X4460240Y4817110D01*
G01X4460240Y4882134D02*
G01X4500372Y4882134D01*
G01X4460240Y4851146D02*
G01X4484878Y4851146D01*
G01X4460240Y4817110D02*
G01X4500372Y4817110D01*
G01X4530598Y4882134D02*
G01X4545838Y4817110D01*
G01X4561332Y4882134D02*
G01X4545838Y4817110D01*
G01X4561332Y4882134D02*
G01X4576826Y4817110D01*
G01X4592320Y4882134D02*
G01X4576826Y4817110D01*
G01X4653280Y4882134D02*
G01X4622546Y4838954D01*
G01X4668774Y4838954D01*
G01X4653280Y4882134D02*
G01X4653280Y4817110D01*
G01X4521454Y4136390D02*
G01X4515104Y4142486D01*
G01X4505960Y4145534D01*
G01X4493514Y4145534D01*
G01X4484116Y4142486D01*
G01X4478020Y4136390D01*
G01X4478020Y4130040D01*
G01X4481068Y4123944D01*
G01X4484116Y4120896D01*
G01X4490466Y4117848D01*
G01X4509008Y4111498D01*
G01X4515104Y4108450D01*
G01X4518152Y4105402D01*
G01X4521454Y4099052D01*
G01X4521454Y4089908D01*
G01X4515104Y4083558D01*
G01X4505960Y4080510D01*
G01X4493514Y4080510D01*
G01X4484116Y4083558D01*
G01X4478020Y4089908D01*
G01X4551680Y4145534D02*
G01X4566920Y4080510D01*
G01X4582414Y4145534D02*
G01X4566920Y4080510D01*
G01X4582414Y4145534D02*
G01X4597908Y4080510D01*
G01X4613402Y4145534D02*
G01X4597908Y4080510D01*
G01X4668266Y4145534D02*
G01X4643628Y4080510D01*
G01X4668266Y4145534D02*
G01X4693158Y4080510D01*
G01X4652772Y4102354D02*
G01X4683760Y4102354D01*
G01X3086354Y3768090D02*
G01X3080004Y3774186D01*
G01X3070860Y3777234D01*
G01X3058414Y3777234D01*
G01X3049016Y3774186D01*
G01X3042920Y3768090D01*
G01X3042920Y3761740D01*
G01X3045968Y3755644D01*
G01X3049016Y3752596D01*
G01X3055366Y3749548D01*
G01X3073908Y3743198D01*
G01X3080004Y3740150D01*
G01X3083052Y3737102D01*
G01X3086354Y3730752D01*
G01X3086354Y3721608D01*
G01X3080004Y3715258D01*
G01X3070860Y3712210D01*
G01X3058414Y3712210D01*
G01X3049016Y3715258D01*
G01X3042920Y3721608D01*
G01X3116580Y3777234D02*
G01X3131820Y3712210D01*
G01X3147314Y3777234D02*
G01X3131820Y3712210D01*
G01X3147314Y3777234D02*
G01X3162808Y3712210D01*
G01X3178302Y3777234D02*
G01X3162808Y3712210D01*
G01X3208528Y3777234D02*
G01X3208528Y3712210D01*
G01X3208528Y3777234D02*
G01X3236214Y3777234D01*
G01X3245612Y3774186D01*
G01X3248660Y3771138D01*
G01X3251708Y3764788D01*
G01X3251708Y3758692D01*
G01X3248660Y3752596D01*
G01X3245612Y3749548D01*
G01X3236214Y3746246D01*
G01X3208528Y3746246D02*
G01X3236214Y3746246D01*
G01X3245612Y3743198D01*
G01X3248660Y3740150D01*
G01X3251708Y3734054D01*
G01X3251708Y3724656D01*
G01X3248660Y3718560D01*
G01X3245612Y3715258D01*
G01X3236214Y3712210D01*
G01X3208528Y3712210D01*
G01X1689354Y3844290D02*
G01X1683004Y3850386D01*
G01X1673860Y3853434D01*
G01X1661414Y3853434D01*
G01X1652016Y3850386D01*
G01X1645920Y3844290D01*
G01X1645920Y3837940D01*
G01X1648968Y3831844D01*
G01X1652016Y3828796D01*
G01X1658366Y3825748D01*
G01X1676908Y3819398D01*
G01X1683004Y3816350D01*
G01X1686052Y3813302D01*
G01X1689354Y3806952D01*
G01X1689354Y3797808D01*
G01X1683004Y3791458D01*
G01X1673860Y3788410D01*
G01X1661414Y3788410D01*
G01X1652016Y3791458D01*
G01X1645920Y3797808D01*
G01X1719580Y3853434D02*
G01X1734820Y3788410D01*
G01X1750314Y3853434D02*
G01X1734820Y3788410D01*
G01X1750314Y3853434D02*
G01X1765808Y3788410D01*
G01X1781302Y3853434D02*
G01X1765808Y3788410D01*
G01X1857756Y3837940D02*
G01X1854708Y3844290D01*
G01X1848612Y3850386D01*
G01X1842262Y3853434D01*
G01X1830070Y3853434D01*
G01X1823720Y3850386D01*
G01X1817624Y3844290D01*
G01X1814576Y3837940D01*
G01X1811528Y3828796D01*
G01X1811528Y3813302D01*
G01X1814576Y3803904D01*
G01X1817624Y3797808D01*
G01X1823720Y3791458D01*
G01X1830070Y3788410D01*
G01X1842262Y3788410D01*
G01X1848612Y3791458D01*
G01X1854708Y3797808D01*
G01X1857756Y3803904D01*
G01X203454Y4098290D02*
G01X197104Y4104386D01*
G01X187960Y4107434D01*
G01X175514Y4107434D01*
G01X166116Y4104386D01*
G01X160020Y4098290D01*
G01X160020Y4091940D01*
G01X163068Y4085844D01*
G01X166116Y4082796D01*
G01X172466Y4079748D01*
G01X191008Y4073398D01*
G01X197104Y4070350D01*
G01X200152Y4067302D01*
G01X203454Y4060952D01*
G01X203454Y4051808D01*
G01X197104Y4045458D01*
G01X187960Y4042410D01*
G01X175514Y4042410D01*
G01X166116Y4045458D01*
G01X160020Y4051808D01*
G01X233680Y4107434D02*
G01X248920Y4042410D01*
G01X264414Y4107434D02*
G01X248920Y4042410D01*
G01X264414Y4107434D02*
G01X279908Y4042410D01*
G01X295402Y4107434D02*
G01X279908Y4042410D01*
G01X325628Y4107434D02*
G01X325628Y4042410D01*
G01X325628Y4107434D02*
G01X347218Y4107434D01*
G01X356362Y4104386D01*
G01X362712Y4098290D01*
G01X365760Y4091940D01*
G01X368808Y4082796D01*
G01X368808Y4067302D01*
G01X365760Y4057904D01*
G01X362712Y4051808D01*
G01X356362Y4045458D01*
G01X347218Y4042410D01*
G01X325628Y4042410D01*
G01X1912620Y653034D02*
G01X1912620Y606552D01*
G01X1915668Y597408D01*
G01X1922018Y591058D01*
G01X1931162Y588010D01*
G01X1937512Y588010D01*
G01X1946656Y591058D01*
G01X1952752Y597408D01*
G01X1956054Y606552D01*
G01X1956054Y653034D01*
G01X1992376Y653034D02*
G01X2026412Y653034D01*
G01X2007870Y628396D01*
G01X2017014Y628396D01*
G01X2023364Y625348D01*
G01X2026412Y622046D01*
G01X2029460Y612902D01*
G01X2029460Y606552D01*
G01X2026412Y597408D01*
G01X2020316Y591058D01*
G01X2010918Y588010D01*
G01X2001520Y588010D01*
G01X1992376Y591058D01*
G01X1989328Y594360D01*
G01X1986280Y600456D01*
G01X3914902Y2669540D02*
G01X3911854Y2675890D01*
G01X3905504Y2681986D01*
G01X3899408Y2685034D01*
G01X3886962Y2685034D01*
G01X3880866Y2681986D01*
G01X3874516Y2675890D01*
G01X3871468Y2669540D01*
G01X3868420Y2660396D01*
G01X3868420Y2644902D01*
G01X3871468Y2635504D01*
G01X3874516Y2629408D01*
G01X3880866Y2623058D01*
G01X3886962Y2620010D01*
G01X3899408Y2620010D01*
G01X3905504Y2623058D01*
G01X3911854Y2629408D01*
G01X3914902Y2635504D01*
G01X3982212Y2685034D02*
G01X3951224Y2685034D01*
G01X3948176Y2657348D01*
G01X3951224Y2660396D01*
G01X3960368Y2663444D01*
G01X3969766Y2663444D01*
G01X3979164Y2660396D01*
G01X3985260Y2654046D01*
G01X3988308Y2644902D01*
G01X3988308Y2638552D01*
G01X3985260Y2629408D01*
G01X3979164Y2623058D01*
G01X3969766Y2620010D01*
G01X3960368Y2620010D01*
G01X3951224Y2623058D01*
G01X3948176Y2626360D01*
G01X3945128Y2632456D01*
G01X3914902Y2555240D02*
G01X3911854Y2561590D01*
G01X3905504Y2567686D01*
G01X3899408Y2570734D01*
G01X3886962Y2570734D01*
G01X3880866Y2567686D01*
G01X3874516Y2561590D01*
G01X3871468Y2555240D01*
G01X3868420Y2546096D01*
G01X3868420Y2530602D01*
G01X3871468Y2521204D01*
G01X3874516Y2515108D01*
G01X3880866Y2508758D01*
G01X3886962Y2505710D01*
G01X3899408Y2505710D01*
G01X3905504Y2508758D01*
G01X3911854Y2515108D01*
G01X3914902Y2521204D01*
G01X3982212Y2561590D02*
G01X3979164Y2567686D01*
G01X3969766Y2570734D01*
G01X3963670Y2570734D01*
G01X3954272Y2567686D01*
G01X3948176Y2558288D01*
G01X3945128Y2543048D01*
G01X3945128Y2527554D01*
G01X3948176Y2515108D01*
G01X3954272Y2508758D01*
G01X3963670Y2505710D01*
G01X3966718Y2505710D01*
G01X3975862Y2508758D01*
G01X3982212Y2515108D01*
G01X3985260Y2524252D01*
G01X3985260Y2527554D01*
G01X3982212Y2536698D01*
G01X3975862Y2543048D01*
G01X3966718Y2546096D01*
G01X3963670Y2546096D01*
G01X3954272Y2543048D01*
G01X3948176Y2536698D01*
G01X3945128Y2527554D01*
G01X3914902Y2783840D02*
G01X3911854Y2790190D01*
G01X3905504Y2796286D01*
G01X3899408Y2799334D01*
G01X3886962Y2799334D01*
G01X3880866Y2796286D01*
G01X3874516Y2790190D01*
G01X3871468Y2783840D01*
G01X3868420Y2774696D01*
G01X3868420Y2759202D01*
G01X3871468Y2749804D01*
G01X3874516Y2743708D01*
G01X3880866Y2737358D01*
G01X3886962Y2734310D01*
G01X3899408Y2734310D01*
G01X3905504Y2737358D01*
G01X3911854Y2743708D01*
G01X3914902Y2749804D01*
G01X3988308Y2799334D02*
G01X3957320Y2734310D01*
G01X3945128Y2799334D02*
G01X3988308Y2799334D01*
G01X4473702Y2961640D02*
G01X4470654Y2967990D01*
G01X4464304Y2974086D01*
G01X4458208Y2977134D01*
G01X4445762Y2977134D01*
G01X4439666Y2974086D01*
G01X4433316Y2967990D01*
G01X4430268Y2961640D01*
G01X4427220Y2952496D01*
G01X4427220Y2937002D01*
G01X4430268Y2927604D01*
G01X4433316Y2921508D01*
G01X4439666Y2915158D01*
G01X4445762Y2912110D01*
G01X4458208Y2912110D01*
G01X4464304Y2915158D01*
G01X4470654Y2921508D01*
G01X4473702Y2927604D01*
G01X4519168Y2977134D02*
G01X4510024Y2974086D01*
G01X4506976Y2967990D01*
G01X4506976Y2961640D01*
G01X4510024Y2955544D01*
G01X4516120Y2952496D01*
G01X4528566Y2949448D01*
G01X4537964Y2946146D01*
G01X4544060Y2940050D01*
G01X4547108Y2933954D01*
G01X4547108Y2924556D01*
G01X4544060Y2918460D01*
G01X4541012Y2915158D01*
G01X4531614Y2912110D01*
G01X4519168Y2912110D01*
G01X4510024Y2915158D01*
G01X4506976Y2918460D01*
G01X4503928Y2924556D01*
G01X4503928Y2933954D01*
G01X4506976Y2940050D01*
G01X4513072Y2946146D01*
G01X4522470Y2949448D01*
G01X4534662Y2952496D01*
G01X4541012Y2955544D01*
G01X4544060Y2961640D01*
G01X4544060Y2967990D01*
G01X4541012Y2974086D01*
G01X4531614Y2977134D01*
G01X4519168Y2977134D01*
G01X1590802Y3037840D02*
G01X1587754Y3044190D01*
G01X1581404Y3050286D01*
G01X1575308Y3053334D01*
G01X1562862Y3053334D01*
G01X1556766Y3050286D01*
G01X1550416Y3044190D01*
G01X1547368Y3037840D01*
G01X1544320Y3028696D01*
G01X1544320Y3013202D01*
G01X1547368Y3003804D01*
G01X1550416Y2997708D01*
G01X1556766Y2991358D01*
G01X1562862Y2988310D01*
G01X1575308Y2988310D01*
G01X1581404Y2991358D01*
G01X1587754Y2997708D01*
G01X1590802Y3003804D01*
G01X1624076Y3037840D02*
G01X1624076Y3040888D01*
G01X1627124Y3047238D01*
G01X1630172Y3050286D01*
G01X1636268Y3053334D01*
G01X1648714Y3053334D01*
G01X1655064Y3050286D01*
G01X1658112Y3047238D01*
G01X1661160Y3040888D01*
G01X1661160Y3034792D01*
G01X1658112Y3028696D01*
G01X1651762Y3019298D01*
G01X1621028Y2988310D01*
G01X1664208Y2988310D01*
G01X1712976Y3053334D02*
G01X1703578Y3050286D01*
G01X1697482Y3040888D01*
G01X1694434Y3025648D01*
G01X1694434Y3016250D01*
G01X1697482Y3000756D01*
G01X1703578Y2991358D01*
G01X1712976Y2988310D01*
G01X1719072Y2988310D01*
G01X1728470Y2991358D01*
G01X1734566Y3000756D01*
G01X1737614Y3016250D01*
G01X1737614Y3025648D01*
G01X1734566Y3040888D01*
G01X1728470Y3050286D01*
G01X1719072Y3053334D01*
G01X1712976Y3053334D01*
G01X1603502Y3266440D02*
G01X1600454Y3272790D01*
G01X1594104Y3278886D01*
G01X1588008Y3281934D01*
G01X1575562Y3281934D01*
G01X1569466Y3278886D01*
G01X1563116Y3272790D01*
G01X1560068Y3266440D01*
G01X1557020Y3257296D01*
G01X1557020Y3241802D01*
G01X1560068Y3232404D01*
G01X1563116Y3226308D01*
G01X1569466Y3219958D01*
G01X1575562Y3216910D01*
G01X1588008Y3216910D01*
G01X1594104Y3219958D01*
G01X1600454Y3226308D01*
G01X1603502Y3232404D01*
G01X1636776Y3266440D02*
G01X1636776Y3269488D01*
G01X1639824Y3275838D01*
G01X1642872Y3278886D01*
G01X1648968Y3281934D01*
G01X1661414Y3281934D01*
G01X1667764Y3278886D01*
G01X1670812Y3275838D01*
G01X1673860Y3269488D01*
G01X1673860Y3263392D01*
G01X1670812Y3257296D01*
G01X1664462Y3247898D01*
G01X1633728Y3216910D01*
G01X1676908Y3216910D01*
G01X1707134Y3269488D02*
G01X1713230Y3272790D01*
G01X1722374Y3281934D01*
G01X1722374Y3216910D01*
G01X257302Y3037840D02*
G01X254254Y3044190D01*
G01X247904Y3050286D01*
G01X241808Y3053334D01*
G01X229362Y3053334D01*
G01X223266Y3050286D01*
G01X216916Y3044190D01*
G01X213868Y3037840D01*
G01X210820Y3028696D01*
G01X210820Y3013202D01*
G01X213868Y3003804D01*
G01X216916Y2997708D01*
G01X223266Y2991358D01*
G01X229362Y2988310D01*
G01X241808Y2988310D01*
G01X247904Y2991358D01*
G01X254254Y2997708D01*
G01X257302Y3003804D01*
G01X290576Y3037840D02*
G01X290576Y3040888D01*
G01X293624Y3047238D01*
G01X296672Y3050286D01*
G01X302768Y3053334D01*
G01X315214Y3053334D01*
G01X321564Y3050286D01*
G01X324612Y3047238D01*
G01X327660Y3040888D01*
G01X327660Y3034792D01*
G01X324612Y3028696D01*
G01X318262Y3019298D01*
G01X287528Y2988310D01*
G01X330708Y2988310D01*
G01X363982Y3037840D02*
G01X363982Y3040888D01*
G01X367030Y3047238D01*
G01X370078Y3050286D01*
G01X376174Y3053334D01*
G01X388620Y3053334D01*
G01X394970Y3050286D01*
G01X398018Y3047238D01*
G01X401066Y3040888D01*
G01X401066Y3034792D01*
G01X398018Y3028696D01*
G01X391668Y3019298D01*
G01X360934Y2988310D01*
G01X404114Y2988310D01*
G01X244602Y3279140D02*
G01X241554Y3285490D01*
G01X235204Y3291586D01*
G01X229108Y3294634D01*
G01X216662Y3294634D01*
G01X210566Y3291586D01*
G01X204216Y3285490D01*
G01X201168Y3279140D01*
G01X198120Y3269996D01*
G01X198120Y3254502D01*
G01X201168Y3245104D01*
G01X204216Y3239008D01*
G01X210566Y3232658D01*
G01X216662Y3229610D01*
G01X229108Y3229610D01*
G01X235204Y3232658D01*
G01X241554Y3239008D01*
G01X244602Y3245104D01*
G01X277876Y3279140D02*
G01X277876Y3282188D01*
G01X280924Y3288538D01*
G01X283972Y3291586D01*
G01X290068Y3294634D01*
G01X302514Y3294634D01*
G01X308864Y3291586D01*
G01X311912Y3288538D01*
G01X314960Y3282188D01*
G01X314960Y3276092D01*
G01X311912Y3269996D01*
G01X305562Y3260598D01*
G01X274828Y3229610D01*
G01X318008Y3229610D01*
G01X354330Y3294634D02*
G01X388366Y3294634D01*
G01X369824Y3269996D01*
G01X378968Y3269996D01*
G01X385318Y3266948D01*
G01X388366Y3263646D01*
G01X391414Y3254502D01*
G01X391414Y3248152D01*
G01X388366Y3239008D01*
G01X382270Y3232658D01*
G01X372872Y3229610D01*
G01X363474Y3229610D01*
G01X354330Y3232658D01*
G01X351282Y3235960D01*
G01X348234Y3242056D01*
G01X308102Y942340D02*
G01X305054Y948690D01*
G01X298704Y954786D01*
G01X292608Y957834D01*
G01X280162Y957834D01*
G01X274066Y954786D01*
G01X267716Y948690D01*
G01X264668Y942340D01*
G01X261620Y933196D01*
G01X261620Y917702D01*
G01X264668Y908304D01*
G01X267716Y902208D01*
G01X274066Y895858D01*
G01X280162Y892810D01*
G01X292608Y892810D01*
G01X298704Y895858D01*
G01X305054Y902208D01*
G01X308102Y908304D01*
G01X341376Y942340D02*
G01X341376Y945388D01*
G01X344424Y951738D01*
G01X347472Y954786D01*
G01X353568Y957834D01*
G01X366014Y957834D01*
G01X372364Y954786D01*
G01X375412Y951738D01*
G01X378460Y945388D01*
G01X378460Y939292D01*
G01X375412Y933196D01*
G01X369062Y923798D01*
G01X338328Y892810D01*
G01X381508Y892810D01*
G01X448818Y957834D02*
G01X417830Y957834D01*
G01X414782Y930148D01*
G01X417830Y933196D01*
G01X426974Y936244D01*
G01X436372Y936244D01*
G01X445770Y933196D01*
G01X451866Y926846D01*
G01X454914Y917702D01*
G01X454914Y911352D01*
G01X451866Y902208D01*
G01X445770Y895858D01*
G01X436372Y892810D01*
G01X426974Y892810D01*
G01X417830Y895858D01*
G01X414782Y899160D01*
G01X411734Y905256D01*
G01X308102Y1209040D02*
G01X305054Y1215390D01*
G01X298704Y1221486D01*
G01X292608Y1224534D01*
G01X280162Y1224534D01*
G01X274066Y1221486D01*
G01X267716Y1215390D01*
G01X264668Y1209040D01*
G01X261620Y1199896D01*
G01X261620Y1184402D01*
G01X264668Y1175004D01*
G01X267716Y1168908D01*
G01X274066Y1162558D01*
G01X280162Y1159510D01*
G01X292608Y1159510D01*
G01X298704Y1162558D01*
G01X305054Y1168908D01*
G01X308102Y1175004D01*
G01X341376Y1209040D02*
G01X341376Y1212088D01*
G01X344424Y1218438D01*
G01X347472Y1221486D01*
G01X353568Y1224534D01*
G01X366014Y1224534D01*
G01X372364Y1221486D01*
G01X375412Y1218438D01*
G01X378460Y1212088D01*
G01X378460Y1205992D01*
G01X375412Y1199896D01*
G01X369062Y1190498D01*
G01X338328Y1159510D01*
G01X381508Y1159510D01*
G01X448818Y1215390D02*
G01X445770Y1221486D01*
G01X436372Y1224534D01*
G01X430276Y1224534D01*
G01X420878Y1221486D01*
G01X414782Y1212088D01*
G01X411734Y1196848D01*
G01X411734Y1181354D01*
G01X414782Y1168908D01*
G01X420878Y1162558D01*
G01X430276Y1159510D01*
G01X433324Y1159510D01*
G01X442468Y1162558D01*
G01X448818Y1168908D01*
G01X451866Y1178052D01*
G01X451866Y1181354D01*
G01X448818Y1190498D01*
G01X442468Y1196848D01*
G01X433324Y1199896D01*
G01X430276Y1199896D01*
G01X420878Y1196848D01*
G01X414782Y1190498D01*
G01X411734Y1181354D01*
G01X1722120Y4628134D02*
G01X1722120Y4563110D01*
G01X1722120Y4563110D02*
G01X1759204Y4563110D01*
G01X1789430Y4615688D02*
G01X1795526Y4618990D01*
G01X1804670Y4628134D01*
G01X1804670Y4563110D01*
G01X333502Y2771140D02*
G01X330454Y2777490D01*
G01X324104Y2783586D01*
G01X318008Y2786634D01*
G01X305562Y2786634D01*
G01X299466Y2783586D01*
G01X293116Y2777490D01*
G01X290068Y2771140D01*
G01X287020Y2761996D01*
G01X287020Y2746502D01*
G01X290068Y2737104D01*
G01X293116Y2731008D01*
G01X299466Y2724658D01*
G01X305562Y2721610D01*
G01X318008Y2721610D01*
G01X324104Y2724658D01*
G01X330454Y2731008D01*
G01X333502Y2737104D01*
G01X363728Y2774188D02*
G01X369824Y2777490D01*
G01X378968Y2786634D01*
G01X378968Y2721610D01*
G01X1603502Y2771140D02*
G01X1600454Y2777490D01*
G01X1594104Y2783586D01*
G01X1588008Y2786634D01*
G01X1575562Y2786634D01*
G01X1569466Y2783586D01*
G01X1563116Y2777490D01*
G01X1560068Y2771140D01*
G01X1557020Y2761996D01*
G01X1557020Y2746502D01*
G01X1560068Y2737104D01*
G01X1563116Y2731008D01*
G01X1569466Y2724658D01*
G01X1575562Y2721610D01*
G01X1588008Y2721610D01*
G01X1594104Y2724658D01*
G01X1600454Y2731008D01*
G01X1603502Y2737104D01*
G01X1639824Y2786634D02*
G01X1673860Y2786634D01*
G01X1655318Y2761996D01*
G01X1664462Y2761996D01*
G01X1670812Y2758948D01*
G01X1673860Y2755646D01*
G01X1676908Y2746502D01*
G01X1676908Y2740152D01*
G01X1673860Y2731008D01*
G01X1667764Y2724658D01*
G01X1658366Y2721610D01*
G01X1648968Y2721610D01*
G01X1639824Y2724658D01*
G01X1636776Y2727960D01*
G01X1633728Y2734056D01*
G01X1707134Y2774188D02*
G01X1713230Y2777490D01*
G01X1722374Y2786634D01*
G01X1722374Y2721610D01*
G01X1351534Y1948180D02*
G01X1286510Y1948180D01*
G01X1351534Y1948180D02*
G01X1351534Y1920240D01*
G01X1348486Y1911096D01*
G01X1345438Y1908048D01*
G01X1339088Y1904746D01*
G01X1332992Y1904746D01*
G01X1326896Y1908048D01*
G01X1323848Y1911096D01*
G01X1320546Y1920240D01*
G01X1320546Y1948180D01*
G01X1320546Y1926590D02*
G01X1286510Y1904746D01*
G01X1351534Y1843786D02*
G01X1308354Y1874520D01*
G01X1308354Y1828292D01*
G01X1351534Y1843786D02*
G01X1286510Y1843786D01*
G04 Text End*

G04 PolygonModel Start*
G01X4729757Y2313666D02*
G01X4731766Y2050029D01*
G01X4731766Y2050029D02*
G01X4196077Y2050029D01*
G01X4196077Y2050029D02*
G01X4056631Y2189475D01*
G01X4056631Y2189475D02*
G01X4057965Y2319017D01*
G01X4731146Y2458364D02*
G01X4731814Y2725214D01*
G01X4731814Y2725214D02*
G01X4196194Y2725214D01*
G01X4196194Y2725214D02*
G01X4056583Y2585601D01*
G01X4056583Y2585601D02*
G01X4056583Y2456175D01*
G36*
G01X4704398Y2245698D02*
G01X4704398Y2225899D01*
G01X4625198Y2225899D01*
G01X4625198Y2245698D01*
G01X4704398Y2245698D01*
G37*
G36*
G01X4083997Y2245698D02*
G01X4163197Y2245698D01*
G01X4163197Y2225899D01*
G01X4083997Y2225899D01*
G01X4083997Y2245698D01*
G37*
G36*
G01X4113698Y2301796D02*
G01X4133497Y2301796D01*
G01X4133497Y2169798D01*
G01X4113698Y2169798D01*
G01X4113698Y2301796D01*
G37*
G54D11*
G01X3558619Y3233257D02*
G01X3638616Y3233257D01*
G01X3502574Y3233303D02*
G01X3422576Y3233303D01*
G01X3558619Y3091289D02*
G01X3638616Y3091289D01*
G01X3502574Y3091337D02*
G01X3422576Y3091337D01*
G01X3669591Y3202275D02*
G01X3669591Y3122270D01*
G01X3391599Y3122323D02*
G01X3391599Y3202325D01*
G01X3422581Y3091337D02*
G02X3391599Y3122323I0J30983D01*
G01X3391599Y3202320D02*
G02X3422581Y3233303I30983J0D01*
G01X3638611Y3233257D02*
G02X3669591Y3202275I-3J-30983D01*
G01X3669591Y3122277D02*
G02X3638611Y3091289I-30983J-5D01*
G01X4023281Y3129443D02*
G01X3943284Y3129443D01*
G01X4079326Y3129397D02*
G01X4159324Y3129397D01*
G01X4023281Y3271411D02*
G01X3943284Y3271411D01*
G01X4079326Y3271363D02*
G01X4159324Y3271363D01*
G01X3912309Y3160425D02*
G01X3912309Y3240430D01*
G01X4190302Y3240377D02*
G01X4190302Y3160375D01*
G01X4159319Y3271363D02*
G02X4190302Y3240377I0J-30983D01*
G01X4190302Y3160380D02*
G02X4159319Y3129397I-30983J0D01*
G01X3943289Y3129443D02*
G02X3912309Y3160425I3J30983D01*
G01X3912309Y3240423D02*
G02X3943289Y3271411I30983J5D01*
G01X1290780Y2166457D02*
G01X1370778Y2166457D01*
G01X1234735Y2166503D02*
G01X1154738Y2166503D01*
G01X1290780Y2024489D02*
G01X1370778Y2024489D01*
G01X1234735Y2024537D02*
G01X1154738Y2024537D01*
G01X1401753Y2135475D02*
G01X1401753Y2055470D01*
G01X1123760Y2055523D02*
G01X1123760Y2135525D01*
G01X1154743Y2024537D02*
G02X1123760Y2055523I0J30983D01*
G01X1123760Y2135520D02*
G02X1154743Y2166503I30983J0D01*
G01X1370772Y2166457D02*
G02X1401753Y2135475I-3J-30983D01*
G01X1401753Y2055477D02*
G02X1370772Y2024489I-30983J-5D01*
G01X1290780Y2344257D02*
G01X1370778Y2344257D01*
G01X1234735Y2344303D02*
G01X1154738Y2344303D01*
G01X1290780Y2202289D02*
G01X1370778Y2202289D01*
G01X1234735Y2202337D02*
G01X1154738Y2202337D01*
G01X1401753Y2313275D02*
G01X1401753Y2233270D01*
G01X1123760Y2233323D02*
G01X1123760Y2313325D01*
G01X1154743Y2202337D02*
G02X1123760Y2233323I0J30983D01*
G01X1123760Y2313320D02*
G02X1154743Y2344303I30983J0D01*
G01X1370772Y2344257D02*
G02X1401753Y2313275I-3J-30983D01*
G01X1401753Y2233277D02*
G02X1370772Y2202289I-30983J-5D01*
G01X1290780Y2522057D02*
G01X1370778Y2522057D01*
G01X1234735Y2522103D02*
G01X1154738Y2522103D01*
G01X1290780Y2380089D02*
G01X1370778Y2380089D01*
G01X1234735Y2380137D02*
G01X1154738Y2380137D01*
G01X1401753Y2491075D02*
G01X1401753Y2411070D01*
G01X1123760Y2411123D02*
G01X1123760Y2491125D01*
G01X1154743Y2380137D02*
G02X1123760Y2411123I0J30983D01*
G01X1123760Y2491120D02*
G02X1154743Y2522103I30983J0D01*
G01X1370772Y2522057D02*
G02X1401753Y2491075I-3J-30983D01*
G01X1401753Y2411077D02*
G02X1370772Y2380089I-30983J-5D01*
G54D10*
G01X185143Y2271034D02*
G01X183134Y2534671D01*
G01X183134Y2534671D02*
G01X718823Y2534671D01*
G01X718823Y2534671D02*
G01X858269Y2395225D01*
G01X858269Y2395225D02*
G01X856935Y2265683D01*
G01X183754Y2126336D02*
G01X183086Y1859486D01*
G01X183086Y1859486D02*
G01X718706Y1859486D01*
G01X718706Y1859486D02*
G01X858317Y1999099D01*
G01X858317Y1999099D02*
G01X858317Y2128525D01*
G36*
G01X210503Y2339002D02*
G01X210503Y2358801D01*
G01X289702Y2358801D01*
G01X289702Y2339002D01*
G01X210503Y2339002D01*
G37*
G36*
G01X830903Y2339002D02*
G01X751703Y2339002D01*
G01X751703Y2358801D01*
G01X830903Y2358801D01*
G01X830903Y2339002D01*
G37*
G36*
G01X801202Y2282904D02*
G01X781403Y2282904D01*
G01X781403Y2414902D01*
G01X801202Y2414902D01*
G01X801202Y2282904D01*
G37*
G54D11*
G01X2725538Y1479687D02*
G01X2782104Y1536253D01*
G01X2685876Y1440089D02*
G01X2629309Y1383523D01*
G01X2825924Y1379300D02*
G01X2882491Y1435867D01*
G01X2786260Y1339704D02*
G01X2729694Y1283138D01*
G01X2825915Y1536248D02*
G01X2882487Y1479676D01*
G01X2685879Y1283143D02*
G01X2629309Y1339713D01*
G01X2729697Y1283141D02*
G02X2685879Y1283143I-21908J21908D01*
G01X2629313Y1339710D02*
G02X2629313Y1383526I21908J21908D01*
G01X2782101Y1536250D02*
G02X2825915Y1536248I21906J-21910D01*
G01X2882482Y1479681D02*
G02X2882487Y1435863I-21905J-21912D01*
G01X2984487Y50419D02*
G01X2987535Y-116459D01*
G01X2987535Y-116459D02*
G01X4000487Y-110617D01*
G01X4000487Y-110617D02*
G01X4000487Y43561D01*
G01X3340100Y1079500D02*
G01X3340100Y1003300D01*
G01X3340100Y1003300D02*
G01X3378200Y1003300D01*
G01X3378200Y1003300D02*
G01X3378200Y800100D01*
G01X3378200Y800100D02*
G01X3619500Y800100D01*
G01X3619500Y800100D02*
G01X3619500Y1003300D01*
G01X3619500Y1003300D02*
G01X3644900Y1003300D01*
G01X3644900Y1003300D02*
G01X3644900Y1079500D01*
G01X3835400Y1066800D02*
G01X3835400Y1003300D01*
G01X3835400Y1003300D02*
G01X3873500Y1003300D01*
G01X3873500Y1003300D02*
G01X3873500Y800100D01*
G01X3873500Y800100D02*
G01X4000500Y800100D01*
G01X4000500Y800100D02*
G01X4000487Y703199D01*
G01X3149600Y1066800D02*
G01X3149600Y1003300D01*
G01X3149600Y1003300D02*
G01X3111500Y1003300D01*
G01X3111500Y1003300D02*
G01X3111500Y812800D01*
G01X3111500Y812800D02*
G01X2984500Y812800D01*
G01X2984500Y812800D02*
G01X2984487Y703199D01*
G01X4000487Y303507D02*
G01X4000487Y703199D01*
G01X2984487Y303507D02*
G01X2984487Y703199D01*
G01X4157487Y342567D02*
G01X4157487Y43490D01*
G01X2827487Y340027D02*
G01X2827487Y50467D01*
G01X4000487Y43490D02*
G01X4157487Y43490D01*
G01X2827487Y50467D02*
G01X2984487Y50467D01*
G01X4000487Y342567D02*
G01X4157487Y342567D01*
G01X2827487Y340027D02*
G01X2984487Y340027D01*
G54D12*
G01X3490620Y2006600D02*
G01X3113380Y2006600D01*
G54D10*
G01X3490620Y2179371D02*
G01X3490620Y1630629D01*
G01X3113380Y2179371D02*
G01X3113380Y1630629D01*
G01X3490620Y1630629D02*
G01X3431939Y1630629D01*
G01X3113380Y1630629D02*
G01X3172061Y1630629D01*
G36*
G01X3105760Y2171751D02*
G01X3105760Y2217471D01*
G01X3177141Y2217471D01*
G01X3177141Y2171751D01*
G01X3105760Y2171751D01*
G37*
G36*
G01X3498240Y2171751D02*
G01X3426859Y2171751D01*
G01X3426859Y2217471D01*
G01X3498240Y2217471D01*
G01X3498240Y2171751D01*
G37*
G54D13*
G01X4707382Y985520D02*
G01X4708398Y985520D01*
G01X4708398Y985520D02*
G01X4741418Y952500D01*
G01X4707382Y917702D02*
G01X4707382Y918718D01*
G01X4707382Y918718D02*
G01X4741418Y952500D01*
G01X4707382Y917702D02*
G01X4707382Y985520D01*
G01X4705350Y877570D02*
G01X4590542Y877570D01*
G01X4705350Y1027684D02*
G01X4590542Y1027684D01*
G01X4590542Y877570D02*
G01X4590542Y1025652D01*
G01X4743450Y1027938D02*
G01X4848352Y1027938D01*
G01X4878324Y987806D02*
G01X4878324Y997966D01*
G01X4878324Y997966D02*
G01X4848352Y1027938D01*
G01X4878324Y917956D02*
G01X4878324Y987806D01*
G01X4878324Y917956D02*
G01X4878324Y907796D01*
G01X4878324Y907796D02*
G01X4848352Y877824D01*
G01X4743450Y877824D02*
G01X4848352Y877824D01*
G01X4707382Y952500D02*
G01X4741418Y952500D01*
G01X525018Y1376680D02*
G01X524002Y1376680D01*
G01X524002Y1376680D02*
G01X490982Y1409700D01*
G01X525018Y1444498D02*
G01X525018Y1443482D01*
G01X525018Y1443482D02*
G01X490982Y1409700D01*
G01X525018Y1444498D02*
G01X525018Y1376680D01*
G01X527050Y1484630D02*
G01X641858Y1484630D01*
G01X527050Y1334516D02*
G01X641858Y1334516D01*
G01X641858Y1484630D02*
G01X641858Y1336548D01*
G01X488950Y1334262D02*
G01X384048Y1334262D01*
G01X354076Y1374394D02*
G01X354076Y1364234D01*
G01X354076Y1364234D02*
G01X384048Y1334262D01*
G01X354076Y1444244D02*
G01X354076Y1374394D01*
G01X354076Y1444244D02*
G01X354076Y1454404D01*
G01X354076Y1454404D02*
G01X384048Y1484376D01*
G01X488950Y1484376D02*
G01X384048Y1484376D01*
G01X525018Y1409700D02*
G01X490982Y1409700D01*
G54D14*
G01X3562701Y2043100D02*
G01X3576401Y2043100D01*
G01X3562701Y1463116D02*
G01X3579774Y1463116D01*
G01X3683607Y1463116D02*
G01X3706777Y1463116D01*
G01X3810607Y1463116D02*
G01X3834793Y1463116D01*
G01X3938623Y1463116D02*
G01X3961793Y1463116D01*
G01X4065626Y1463116D02*
G01X4082699Y1463116D01*
G01X3572713Y2043100D02*
G01X3576404Y2043100D01*
G01X4068996Y2043100D02*
G01X4072712Y2043100D01*
G01X4082699Y1662877D02*
G01X4082699Y1463116D01*
G01X4068999Y2043100D02*
G01X4082699Y2043100D01*
G01X3562701Y1463116D02*
G01X3562701Y1662877D01*
G01X3562701Y1749359D02*
G01X3562701Y2043100D01*
G01X4082699Y2043100D02*
G01X4082699Y1749359D01*
G54D15*
G01X3502713Y1493114D02*
G03X3527605Y1493241I12445J127D01*
G03X3502713Y1493368I-12446J0D01*
G54D10*
G01X2175581Y2354659D02*
G01X2032086Y2354659D01*
G01X2032086Y2354659D02*
G01X2032086Y1963341D01*
G01X2032086Y1963341D02*
G01X2175581Y1963341D01*
G01X2675819Y2354659D02*
G01X2819314Y2354659D01*
G01X2819314Y2354659D02*
G01X2819314Y1963341D01*
G01X2819314Y1963341D02*
G01X2675819Y1963341D01*
G01X4351579Y1018560D02*
G01X4255691Y1018560D01*
G01X4255691Y1018560D02*
G01X4255691Y886440D01*
G01X4255691Y886440D02*
G01X4351579Y886440D01*
G01X4436821Y1018560D02*
G01X4532709Y1018560D01*
G01X4532709Y1018560D02*
G01X4532709Y886440D01*
G01X4532709Y886440D02*
G01X4436821Y886440D01*
G01X868121Y1343640D02*
G01X964009Y1343640D01*
G01X964009Y1343640D02*
G01X964009Y1475760D01*
G01X964009Y1475760D02*
G01X868121Y1475760D01*
G01X782879Y1343640D02*
G01X686991Y1343640D01*
G01X686991Y1343640D02*
G01X686991Y1475760D01*
G01X686991Y1475760D02*
G01X782879Y1475760D01*
G54D11*
G01X684114Y4684112D02*
G01X315814Y4315812D01*
G01X315814Y4684112D02*
G01X684114Y4315812D01*
G01X4684107Y684112D02*
G01X4315807Y315812D01*
G01X4315807Y684112D02*
G01X4684107Y315812D01*
G01X684150Y684150D02*
G01X315850Y315850D01*
G01X315850Y684150D02*
G01X684150Y315850D01*
G01X4684106Y4684112D02*
G01X4315806Y4315812D01*
G01X4315806Y4684112D02*
G01X4684106Y4315812D01*
G01X3441700Y4174112D02*
G01X4102100Y4174112D01*
G01X4102100Y4174112D02*
G01X4102100Y3567052D01*
G01X3441700Y4174112D02*
G01X3441700Y3564512D01*
G01X3503722Y4174112D02*
G01X3503722Y4224912D01*
G01X3583188Y4174112D02*
G01X3583188Y4224912D01*
G01X3960744Y4174772D02*
G01X3960744Y4225572D01*
G01X4040210Y4174772D02*
G01X4040210Y4225572D01*
G54D17*
G01X4157980Y4372232D02*
G03X4197980Y4372359I20000J127D01*
G03X4157980Y4372486I-20000J0D01*
G54D11*
G01X3276600Y2785488D02*
G01X2616200Y2785488D01*
G01X2616200Y2785488D02*
G01X2616200Y3392548D01*
G01X3276600Y2785488D02*
G01X3276600Y3395088D01*
G01X3214578Y2785488D02*
G01X3214578Y2734688D01*
G01X3135112Y2785488D02*
G01X3135112Y2734688D01*
G01X2757556Y2784828D02*
G01X2757556Y2734028D01*
G01X2678090Y2784828D02*
G01X2678090Y2734028D01*
G54D17*
G01X2560320Y2587368D02*
G03X2520320Y2587241I-20000J-127D01*
G03X2560320Y2587114I20000J0D01*
G54D11*
G01X2425700Y2810888D02*
G01X1765300Y2810888D01*
G01X1765300Y2810888D02*
G01X1765300Y3417948D01*
G01X2425700Y2810888D02*
G01X2425700Y3420488D01*
G01X2363678Y2810888D02*
G01X2363678Y2760088D01*
G01X2284212Y2810888D02*
G01X2284212Y2760088D01*
G01X1906656Y2810228D02*
G01X1906656Y2759428D01*
G01X1827190Y2810228D02*
G01X1827190Y2759428D01*
G54D17*
G01X1709420Y2612768D02*
G03X1669420Y2612641I-20000J-127D01*
G03X1709420Y2612514I20000J0D01*
G54D11*
G01X1303912Y4191000D02*
G01X1303912Y3530600D01*
G01X1303912Y3530600D02*
G01X696852Y3530600D01*
G01X1303912Y4191000D02*
G01X694312Y4191000D01*
G01X1303912Y4128978D02*
G01X1354712Y4128978D01*
G01X1303912Y4049512D02*
G01X1354712Y4049512D01*
G01X1304572Y3671956D02*
G01X1355372Y3671956D01*
G01X1304572Y3592490D02*
G01X1355372Y3592490D01*
G54D17*
G01X1502032Y3474720D02*
G03X1502159Y3434720I127J-20000D01*
G03X1502286Y3474720I0J20000D01*
G54D11*
G01X1980895Y-90104D02*
G01X1980895Y109903D01*
G01X990897Y-90104D02*
G01X990897Y109903D01*
G01X2160895Y109903D02*
G01X1980898Y109903D01*
G01X2104293Y309900D02*
G01X2160895Y309900D01*
G01X2160895Y309900D02*
G01X2160895Y109903D01*
G01X810903Y109903D02*
G01X990897Y109903D01*
G01X810903Y309900D02*
G01X810903Y109903D01*
G01X867501Y309900D02*
G01X810903Y309900D01*
G01X1635902Y504886D02*
G01X1635902Y604637D01*
G01X1835897Y504886D02*
G01X1835897Y599554D01*
G01X1610898Y504886D02*
G01X1860906Y504886D01*
G01X1860906Y309888D02*
G01X1860906Y504886D01*
G01X1610898Y309888D02*
G01X1610898Y504886D01*
G01X1135901Y504899D02*
G01X1135901Y604647D01*
G01X1335900Y504899D02*
G01X1335900Y599562D01*
G01X1110902Y504899D02*
G01X1360907Y504899D01*
G01X1360907Y309900D02*
G01X1360907Y504899D01*
G01X1110902Y309900D02*
G01X1110902Y504899D01*
G01X1004253Y309900D02*
G01X1967548Y309900D01*
G01X1980895Y-90104D02*
G01X990897Y-90104D01*
G01X1935897Y-690108D02*
G01X1935897Y-90106D01*
G01X1035896Y-690108D02*
G01X1035896Y-90104D01*
G01X1035896Y-690108D02*
G01X1935897Y-690108D01*
G54D10*
G01X3327580Y2583139D02*
G01X3476079Y2583139D01*
G01X3476079Y2801661D02*
G01X3327580Y2801661D01*
G01X3312340Y2786421D02*
G01X3312340Y2598379D01*
G01X3809820Y2583139D02*
G01X3661321Y2583139D01*
G01X3661321Y2801661D02*
G01X3809820Y2801661D01*
G01X3825060Y2786421D02*
G01X3825060Y2598379D01*
G01X3327580Y2801661D02*
G03X3312340Y2786421I0J-15240D01*
G01X3312340Y2598379D02*
G03X3327580Y2583139I15240J0D01*
G01X3809820Y2801661D02*
G02X3825060Y2786421I0J-15240D01*
G01X3825060Y2598379D02*
G02X3809820Y2583139I-15240J0D01*
G01X3327580Y2329139D02*
G01X3476079Y2329139D01*
G01X3476079Y2547661D02*
G01X3327580Y2547661D01*
G01X3312340Y2532421D02*
G01X3312340Y2344379D01*
G01X3809820Y2329139D02*
G01X3661321Y2329139D01*
G01X3661321Y2547661D02*
G01X3809820Y2547661D01*
G01X3825060Y2532421D02*
G01X3825060Y2344379D01*
G01X3327580Y2547661D02*
G03X3312340Y2532421I0J-15240D01*
G01X3312340Y2344379D02*
G03X3327580Y2329139I15240J0D01*
G01X3809820Y2547661D02*
G02X3825060Y2532421I0J-15240D01*
G01X3825060Y2344379D02*
G02X3809820Y2329139I-15240J0D01*
G01X3327580Y2824439D02*
G01X3476079Y2824439D01*
G01X3476079Y3042961D02*
G01X3327580Y3042961D01*
G01X3312340Y3027721D02*
G01X3312340Y2839679D01*
G01X3809820Y2824439D02*
G01X3661321Y2824439D01*
G01X3661321Y3042961D02*
G01X3809820Y3042961D01*
G01X3825060Y3027721D02*
G01X3825060Y2839679D01*
G01X3327580Y3042961D02*
G03X3312340Y3027721I0J-15240D01*
G01X3312340Y2839679D02*
G03X3327580Y2824439I15240J0D01*
G01X3809820Y3042961D02*
G02X3825060Y3027721I0J-15240D01*
G01X3825060Y2839679D02*
G02X3809820Y2824439I-15240J0D01*
G01X4355920Y3042961D02*
G01X4207421Y3042961D01*
G01X4207421Y2824439D02*
G01X4355920Y2824439D01*
G01X4371160Y2839679D02*
G01X4371160Y3027721D01*
G01X3873680Y3042961D02*
G01X4022179Y3042961D01*
G01X4022179Y2824439D02*
G01X3873680Y2824439D01*
G01X3858440Y2839679D02*
G01X3858440Y3027721D01*
G01X4355920Y2824439D02*
G03X4371160Y2839679I0J15240D01*
G01X4371160Y3027721D02*
G03X4355920Y3042961I-15240J0D01*
G01X3873680Y2824439D02*
G02X3858440Y2839679I0J15240D01*
G01X3858440Y3027721D02*
G02X3873680Y3042961I15240J0D01*
G01X1016180Y2913339D02*
G01X1164679Y2913339D01*
G01X1164679Y3131861D02*
G01X1016180Y3131861D01*
G01X1000940Y3116621D02*
G01X1000940Y2928579D01*
G01X1498420Y2913339D02*
G01X1349921Y2913339D01*
G01X1349921Y3131861D02*
G01X1498420Y3131861D01*
G01X1513660Y3116621D02*
G01X1513660Y2928579D01*
G01X1016180Y3131861D02*
G03X1000940Y3116621I0J-15240D01*
G01X1000940Y2928579D02*
G03X1016180Y2913339I15240J0D01*
G01X1498420Y3131861D02*
G02X1513660Y3116621I0J-15240D01*
G01X1513660Y2928579D02*
G02X1498420Y2913339I-15240J0D01*
G01X1016180Y3167339D02*
G01X1164679Y3167339D01*
G01X1164679Y3385861D02*
G01X1016180Y3385861D01*
G01X1000940Y3370621D02*
G01X1000940Y3182579D01*
G01X1498420Y3167339D02*
G01X1349921Y3167339D01*
G01X1349921Y3385861D02*
G01X1498420Y3385861D01*
G01X1513660Y3370621D02*
G01X1513660Y3182579D01*
G01X1016180Y3385861D02*
G03X1000940Y3370621I0J-15240D01*
G01X1000940Y3182579D02*
G03X1016180Y3167339I15240J0D01*
G01X1498420Y3385861D02*
G02X1513660Y3370621I0J-15240D01*
G01X1513660Y3182579D02*
G02X1498420Y3167339I-15240J0D01*
G01X952320Y3119161D02*
G01X803821Y3119161D01*
G01X803821Y2900639D02*
G01X952320Y2900639D01*
G01X967560Y2915879D02*
G01X967560Y3103921D01*
G01X470080Y3119161D02*
G01X618579Y3119161D01*
G01X618579Y2900639D02*
G01X470080Y2900639D01*
G01X454840Y2915879D02*
G01X454840Y3103921D01*
G01X952320Y2900639D02*
G03X967560Y2915879I0J15240D01*
G01X967560Y3103921D02*
G03X952320Y3119161I-15240J0D01*
G01X470080Y2900639D02*
G02X454840Y2915879I0J15240D01*
G01X454840Y3103921D02*
G02X470080Y3119161I15240J0D01*
G01X952320Y3373161D02*
G01X803821Y3373161D01*
G01X803821Y3154639D02*
G01X952320Y3154639D01*
G01X967560Y3169879D02*
G01X967560Y3357921D01*
G01X470080Y3373161D02*
G01X618579Y3373161D01*
G01X618579Y3154639D02*
G01X470080Y3154639D01*
G01X454840Y3169879D02*
G01X454840Y3357921D01*
G01X952320Y3154639D02*
G03X967560Y3169879I0J15240D01*
G01X967560Y3357921D02*
G03X952320Y3373161I-15240J0D01*
G01X470080Y3154639D02*
G02X454840Y3169879I0J15240D01*
G01X454840Y3357921D02*
G02X470080Y3373161I15240J0D01*
G01X974745Y1067368D02*
G01X826247Y1067368D01*
G01X826247Y848847D02*
G01X974745Y848847D01*
G01X989985Y864087D02*
G01X989985Y1052128D01*
G01X492506Y1067368D02*
G01X641005Y1067368D01*
G01X641005Y848847D02*
G01X492506Y848847D01*
G01X477266Y864087D02*
G01X477266Y1052128D01*
G01X974745Y848847D02*
G03X989985Y864087I0J15240D01*
G01X989985Y1052128D02*
G03X974745Y1067368I-15240J0D01*
G01X492506Y848847D02*
G02X477266Y864087I0J15240D01*
G01X477266Y1052128D02*
G02X492506Y1067368I15240J0D01*
G01X977720Y1315761D02*
G01X829221Y1315761D01*
G01X829221Y1097239D02*
G01X977720Y1097239D01*
G01X992960Y1112479D02*
G01X992960Y1300521D01*
G01X495480Y1315761D02*
G01X643979Y1315761D01*
G01X643979Y1097239D02*
G01X495480Y1097239D01*
G01X480240Y1112479D02*
G01X480240Y1300521D01*
G01X977720Y1097239D02*
G03X992960Y1112479I0J15240D01*
G01X992960Y1300521D02*
G03X977720Y1315761I-15240J0D01*
G01X495480Y1097239D02*
G02X480240Y1112479I0J15240D01*
G01X480240Y1300521D02*
G02X495480Y1315761I15240J0D01*
G54D11*
G01X1925701Y4837201D02*
G01X2925702Y4837201D01*
G01X2925702Y4837201D02*
G01X2925702Y3697199D01*
G01X2925702Y3697199D02*
G01X1925701Y3697199D01*
G01X1925701Y3697199D02*
G01X1925701Y4837201D01*
G36*
G01X2975701Y4667199D02*
G01X3015701Y4667199D01*
G01X3015701Y3857201D01*
G01X2975701Y3857201D01*
G01X2975701Y4667199D01*
G37*
G54D10*
G01X952320Y2865161D02*
G01X803821Y2865161D01*
G01X803821Y2646639D02*
G01X952320Y2646639D01*
G01X967560Y2661879D02*
G01X967560Y2849921D01*
G01X470080Y2865161D02*
G01X618579Y2865161D01*
G01X618579Y2646639D02*
G01X470080Y2646639D01*
G01X454840Y2661879D02*
G01X454840Y2849921D01*
G01X952320Y2646639D02*
G03X967560Y2661879I0J15240D01*
G01X967560Y2849921D02*
G03X952320Y2865161I-15240J0D01*
G01X470080Y2646639D02*
G02X454840Y2661879I0J15240D01*
G01X454840Y2849921D02*
G02X470080Y2865161I15240J0D01*
G01X1028880Y2646639D02*
G01X1177379Y2646639D01*
G01X1177379Y2865161D02*
G01X1028880Y2865161D01*
G01X1013640Y2849921D02*
G01X1013640Y2661879D01*
G01X1511120Y2646639D02*
G01X1362621Y2646639D01*
G01X1362621Y2865161D02*
G01X1511120Y2865161D01*
G01X1526360Y2849921D02*
G01X1526360Y2661879D01*
G01X1028880Y2865161D02*
G03X1013640Y2849921I0J-15240D01*
G01X1013640Y2661879D02*
G03X1028880Y2646639I15240J0D01*
G01X1511120Y2865161D02*
G02X1526360Y2849921I0J-15240D01*
G01X1526360Y2661879D02*
G02X1511120Y2646639I-15240J0D01*
G01X1010841Y1172281D02*
G01X1010841Y1028786D01*
G01X1010841Y1028786D02*
G01X1402159Y1028786D01*
G01X1402159Y1028786D02*
G01X1402159Y1172281D01*
G01X1010841Y1672519D02*
G01X1010841Y1816014D01*
G01X1010841Y1816014D02*
G01X1402159Y1816014D01*
G01X1402159Y1816014D02*
G01X1402159Y1672519D01*

G04 Circle Start*
G54D11*
G01X233264Y4499962D02*
G03X766664Y4499962I266700J0D01*
G03X233264Y4499962I-266700J0D01*
G01X4233257Y499962D02*
G03X4766657Y499962I266700J0D01*
G03X4233257Y499962I-266700J0D01*
G01X233300Y500000D02*
G03X766700Y500000I266700J0D01*
G03X233300Y500000I-266700J0D01*
G01X4233256Y4499962D02*
G03X4766656Y4499962I266700J0D01*
G03X4233256Y4499962I-266700J0D01*
G04 Circle End*

M02*

